<?xml version="1.0" encoding="UTF-8" standalone="no"?>
<svg
   xmlns:dc="http://purl.org/dc/elements/1.1/"
   xmlns:cc="http://creativecommons.org/ns#"
   xmlns:rdf="http://www.w3.org/1999/02/22-rdf-syntax-ns#"
   xmlns:svg="http://www.w3.org/2000/svg"
   xmlns="http://www.w3.org/2000/svg"
   xmlns:xlink="http://www.w3.org/1999/xlink"
   xmlns:sodipodi="http://sodipodi.sourceforge.net/DTD/sodipodi-0.dtd"
   xmlns:inkscape="http://www.inkscape.org/namespaces/inkscape"
   viewBox="0 0 32 8"
   version="1.1"
   id="svg15"
   sodipodi:docname="webdev.svg"
   width="32pc"
   height="8pc"
   inkscape:version="0.92.2 (5c3e80d, 2017-08-06)">
  <metadata
     id="metadata19">
    <rdf:RDF>
      <cc:Work
         rdf:about="">
        <dc:format>image/svg+xml</dc:format>
        <dc:type
           rdf:resource="http://purl.org/dc/dcmitype/StillImage" />
        <dc:title></dc:title>
      </cc:Work>
    </rdf:RDF>
  </metadata>
  <sodipodi:namedview
     pagecolor="#ffffff"
     bordercolor="#666666"
     borderopacity="1"
     objecttolerance="10"
     gridtolerance="10"
     guidetolerance="10"
     inkscape:pageopacity="0"
     inkscape:pageshadow="2"
     inkscape:window-width="1920"
     inkscape:window-height="1057"
     id="namedview17"
     showgrid="false"
     inkscape:document-units="pc"
     units="pc"
     inkscape:zoom="1.84375"
     inkscape:cx="226.03683"
     inkscape:cy="59.718642"
     inkscape:window-x="-8"
     inkscape:window-y="-8"
     inkscape:window-maximized="1"
     inkscape:current-layer="g13" />
  <defs
     id="defs7">
    <linearGradient
       id="0"
       x1="451.69"
       y1="556.78998"
       x2="451.34"
       y2="528.78998"
       gradientUnits="userSpaceOnUse"
       gradientTransform="translate(-20.158536,-10.28301)">
      <stop
         stop-color="#8798a9"
         id="stop2" />
      <stop
         offset="1"
         stop-color="#aeb6be"
         id="stop4" />
    </linearGradient>
    <marker
       style="overflow:visible"
       id="TriangleOutS"
       orient="auto"
       refY="0"
       refX="0">
      <path
         inkscape:connector-curvature="0"
         style="fill-rule:evenodd;stroke:#000000;stroke-width:1.00000003pt;marker-start:none"
         id="path3322"
         transform="scale(0.2)"
         d="M 5.77,0 -2.88,5 V -5 Z" />
    </marker>
    <marker
       style="overflow:visible"
       id="marker1068"
       orient="auto"
       refY="0"
       refX="0">
      <path
         inkscape:connector-curvature="0"
         style="fill-rule:evenodd;stroke:#000000;stroke-width:1.00000003pt;marker-start:none"
         id="path1066"
         transform="scale(0.2)"
         d="M 5.77,0 -2.88,5 V -5 Z" />
    </marker>
    <marker
       style="overflow:visible"
       id="marker1072"
       orient="auto"
       refY="0"
       refX="0">
      <path
         inkscape:connector-curvature="0"
         style="fill-rule:evenodd;stroke:#000000;stroke-width:1.00000003pt;marker-start:none"
         id="path1070"
         transform="scale(0.2)"
         d="M 5.77,0 -2.88,5 V -5 Z" />
    </marker>
    <marker
       style="overflow:visible"
       id="marker1076"
       orient="auto"
       refY="0"
       refX="0">
      <path
         inkscape:connector-curvature="0"
         style="fill-rule:evenodd;stroke:#000000;stroke-width:1.00000003pt;marker-start:none"
         id="path1074"
         transform="scale(0.2)"
         d="M 5.77,0 -2.88,5 V -5 Z" />
    </marker>
    <marker
       style="overflow:visible"
       id="marker1080"
       orient="auto"
       refY="0"
       refX="0">
      <path
         inkscape:connector-curvature="0"
         style="fill-rule:evenodd;stroke:#000000;stroke-width:1.00000003pt;marker-start:none"
         id="path1078"
         transform="scale(0.2)"
         d="M 5.77,0 -2.88,5 V -5 Z" />
    </marker>
    <marker
       style="overflow:visible"
       id="marker1084"
       orient="auto"
       refY="0"
       refX="0">
      <path
         inkscape:connector-curvature="0"
         style="fill-rule:evenodd;stroke:#000000;stroke-width:1.00000003pt;marker-start:none"
         id="path1082"
         transform="scale(0.2)"
         d="M 5.77,0 -2.88,5 V -5 Z" />
    </marker>
    <marker
       style="overflow:visible"
       id="marker1088"
       orient="auto"
       refY="0"
       refX="0">
      <path
         inkscape:connector-curvature="0"
         style="fill-rule:evenodd;stroke:#000000;stroke-width:1.00000003pt;marker-start:none"
         id="path1086"
         transform="scale(0.2)"
         d="M 5.77,0 -2.88,5 V -5 Z" />
    </marker>
    <marker
       style="overflow:visible"
       id="marker1092"
       orient="auto"
       refY="0"
       refX="0">
      <path
         inkscape:connector-curvature="0"
         style="fill-rule:evenodd;stroke:#000000;stroke-width:1.00000003pt;marker-start:none"
         id="path1090"
         transform="scale(0.2)"
         d="M 5.77,0 -2.88,5 V -5 Z" />
    </marker>
    <marker
       style="overflow:visible"
       id="marker1096"
       orient="auto"
       refY="0"
       refX="0">
      <path
         inkscape:connector-curvature="0"
         style="fill-rule:evenodd;stroke:#000000;stroke-width:1.00000003pt;marker-start:none"
         id="path1094"
         transform="scale(0.2)"
         d="M 5.77,0 -2.88,5 V -5 Z" />
    </marker>
    <marker
       style="overflow:visible"
       id="marker1100"
       orient="auto"
       refY="0"
       refX="0">
      <path
         inkscape:connector-curvature="0"
         style="fill-rule:evenodd;stroke:#000000;stroke-width:1.00000003pt;marker-start:none"
         id="path1098"
         transform="scale(0.2)"
         d="M 5.77,0 -2.88,5 V -5 Z" />
    </marker>
  </defs>
  <g
     transform="translate(-435.34,-543.29)"
     id="g13"
     style="stroke:#1f2a47">
    <g
       id="g1516"
       transform="translate(-3.625)">
      <g
         transform="translate(-0.88135593,-0.20338983)"
         id="g1025">
        <path
           style="fill:#047391;fill-opacity:1;stroke-width:0.05845851;stroke-miterlimit:4;stroke-dasharray:none"
           d="m 452.74444,546.70235 c -0.0115,0.057 -0.0219,0.11444 -0.0308,0.17238 -0.009,0.058 -0.0164,0.11637 -0.0222,0.17524 -0.0121,0.11766 -0.018,0.23706 -0.018,0.35787 0,0.12086 0.006,0.24025 0.018,0.35789 0.004,0.0589 0.0133,0.11727 0.0222,0.17522 0.009,0.058 0.0191,0.11542 0.0308,0.17238 0.0117,0.057 0.0247,0.11344 0.0392,0.16935 0.0289,0.11183 0.0629,0.22158 0.10219,0.32878 0.0196,0.0537 0.0406,0.10659 0.0627,0.15895 0.022,0.0522 0.0455,0.10406 0.0701,0.15507 0.0122,0.0254 0.0249,0.0509 0.0378,0.076 0.0257,0.0503 0.0528,0.0999 0.0807,0.1488 0.0843,0.1466 0.17893,0.28653 0.28288,0.41881 0.0519,0.0661 0.10626,0.13034 0.16275,0.19251 0.0377,0.0414 0.0763,0.082 0.11592,0.12158 0.0396,0.0396 0.0801,0.0782 0.12156,0.11592 0.18651,0.16951 0.39137,0.3191 0.61128,0.44561 0.0488,0.0282 0.0985,0.055 0.1488,0.0807 0.10065,0.0516 0.20409,0.0985 0.31008,0.14016 0.0529,0.021 0.10659,0.0406 0.16085,0.0589 0.35242,0.11926 0.73005,0.18388 1.12271,0.18388 0.26774,0 0.52845,-0.0301 0.77892,-0.087 0.11692,-0.0265 0.23168,-0.0589 0.34381,-0.0968 0.0542,-0.0184 0.1078,-0.0381 0.16083,-0.0589 0.10604,-0.0418 0.20948,-0.0887 0.31007,-0.14018 0.0503,-0.0256 0.1,-0.0528 0.14879,-0.0807 0.21993,-0.12644 0.4248,-0.27612 0.61129,-0.4456 0.0415,-0.0377 0.082,-0.0763 0.12157,-0.11593 0.0396,-0.0396 0.0782,-0.0801 0.11593,-0.12157 0.0565,-0.062 0.11086,-0.12638 0.16276,-0.19251 0.0823,-0.10461 0.1584,-0.21414 0.22847,-0.32784 0.0184,-0.0301 0.0366,-0.0603 0.0543,-0.091 0.0282,-0.0488 0.055,-0.0985 0.0807,-0.14879 0.0129,-0.0252 0.0254,-0.0505 0.0378,-0.076 0.0245,-0.0509 0.0481,-0.10274 0.0701,-0.15507 0.0221,-0.0523 0.043,-0.10538 0.0627,-0.15897 0.0393,-0.10725 0.0735,-0.21693 0.10219,-0.32877 0.0143,-0.0559 0.0275,-0.1124 0.0392,-0.16935 0.0117,-0.0569 0.0219,-0.11445 0.0308,-0.1724 0.009,-0.058 0.0163,-0.11633 0.0222,-0.1752 0.012,-0.11766 0.0181,-0.23706 0.0181,-0.35788 0,-0.12084 -0.005,-0.24025 -0.0181,-0.35789 -0.005,-0.0589 -0.0134,-0.11726 -0.0222,-0.17521 -0.009,-0.058 -0.0191,-0.11543 -0.0308,-0.17241 -0.0117,-0.0569 -0.0247,-0.11344 -0.0392,-0.16932 -0.0289,-0.11184 -0.0629,-0.22158 -0.10219,-0.32876 -0.01,-0.0269 -0.0199,-0.0535 -0.0304,-0.08 -0.0314,-0.0795 -0.0654,-0.15755 -0.10241,-0.23407 -0.0122,-0.0254 -0.0249,-0.0509 -0.0378,-0.076 -0.0257,-0.0503 -0.0528,-0.1 -0.0807,-0.14877 -0.0843,-0.14663 -0.17893,-0.28654 -0.28288,-0.41883 -0.052,-0.0661 -0.10626,-0.13031 -0.16278,-0.19251 -0.0377,-0.0414 -0.0762,-0.082 -0.1159,-0.12157 -0.0396,-0.0397 -0.0801,-0.0782 -0.12156,-0.11592 -0.0803,-0.0729 -0.16404,-0.14215 -0.25086,-0.20748 -0.11488,-0.0864 -0.23519,-0.16609 -0.36044,-0.23812 -0.0488,-0.0282 -0.0984,-0.055 -0.14878,-0.0807 -0.0229,-0.0118 -0.0459,-0.0231 -0.0691,-0.0343 -0.0277,-0.0133 -0.0558,-0.0266 -0.0839,-0.0394 -0.0119,-0.005 -0.0236,-0.01 -0.0355,-0.0156 -0.0401,-0.0176 -0.0806,-0.0348 -0.12148,-0.0509 -5.5e-4,-2.4e-4 -0.002,-4.1e-4 -0.003,-5.8e-4 -0.0437,-0.0173 -0.0877,-0.0332 -0.1322,-0.0487 -0.009,-0.005 -0.0178,-0.005 -0.0271,-0.01 -0.10362,-0.0351 -0.20948,-0.0655 -0.31729,-0.0906 -0.0335,-0.008 -0.0674,-0.0156 -0.10153,-0.0224 -0.0244,-0.006 -0.0492,-0.01 -0.0739,-0.0141 -0.18414,-0.0334 -0.37328,-0.0524 -0.56627,-0.0559 -0.0212,-3.7e-4 -0.0425,-5.8e-4 -0.0639,-5.8e-4 -0.0363,0 -0.0725,5.8e-4 -0.10846,0.003 -0.35382,0.011 -0.69448,0.0739 -1.01432,0.18211 -0.0541,0.0184 -0.10791,0.0379 -0.16084,0.0589 -0.0164,0.005 -0.0324,0.0133 -0.0488,0.0199 -0.0364,0.0148 -0.0726,0.0302 -0.10824,0.0465 -0.0517,0.0234 -0.10274,0.048 -0.15302,0.0737 -0.0503,0.0256 -0.0999,0.0528 -0.1488,0.0807 -0.19661,0.11306 -0.38113,0.24468 -0.55133,0.39237 -0.0201,0.0175 -0.0402,0.0352 -0.06,0.0531 -0.0415,0.0377 -0.082,0.0763 -0.12156,0.11593 -0.0396,0.0396 -0.0782,0.0801 -0.11591,0.12156 -0.0565,0.062 -0.11072,0.12636 -0.16276,0.1925 -0.10395,0.13226 -0.19857,0.27222 -0.28288,0.41884 -0.0282,0.0488 -0.055,0.0986 -0.0807,0.14877 -0.0129,0.0253 -0.0254,0.0505 -0.0378,0.076 -0.0369,0.0766 -0.0709,0.15459 -0.10241,0.23406 -0.01,0.0265 -0.0205,0.053 -0.0304,0.0799 -0.0393,0.10725 -0.0735,0.21691 -0.10219,0.32877 -0.0143,0.0559 -0.0272,0.11232 -0.0389,0.16927 z"
           id="path1013"
           inkscape:connector-curvature="0" />
        <path
           style="fill:#00a33d;fill-opacity:1;stroke-width:0.05845851;stroke-miterlimit:4;stroke-dasharray:none"
           d="m 455.58071,544.14772 c 0.006,0.0117 0.0125,0.0251 0.0293,0.0301 0.0328,-0.0169 0.0654,0.002 0.10154,0 0.0352,-0.002 0.0665,-0.0174 0.10527,-0.0113 0.0685,0.011 0.16413,0.0777 0.21809,0.0412 0.0135,-0.009 0.01,-0.025 0.0227,-0.0488 0.01,-0.019 0.025,-0.04 0.0342,-0.0636 0.0272,-6e-4 0.0546,-0.002 0.082,-0.002 0.22639,0 0.44756,0.0229 0.66133,0.0663 -0.009,0.0236 -0.0384,0.0131 -0.063,0.0244 -0.0231,0.011 -0.0318,0.0329 -0.0564,0.0375 -0.0684,0.0129 -0.12509,-0.0173 -0.18427,-0.0149 -0.004,0.0255 0.0293,0.0405 0.0451,0.0487 0.0537,0.0282 0.0973,0.0243 0.17301,0.0226 0.0388,-6e-4 0.0834,0.0116 0.11661,-0.0113 0.0211,-0.0144 0.02,-0.0461 0.0377,-0.0638 0.007,-0.007 0.0185,-0.0149 0.031,-0.0213 0.0371,0.009 0.074,0.0184 0.11073,0.0282 -0.005,0.0253 -0.0471,0.0193 -0.0477,0.053 0.0262,0.0156 0.0869,-0.009 0.11047,-0.0353 0.009,0.004 0.0183,0.005 0.0272,0.008 0.0531,0.0163 0.10582,0.0335 0.15789,0.0522 0.0741,0.0267 0.14707,0.056 0.21879,0.0878 -0.0138,0.008 -0.0284,0.0185 -0.0406,0.0184 -0.0311,-2e-4 -0.0443,-0.0417 -0.079,-0.0263 -0.005,0.0402 0.0425,0.0565 0.0715,0.075 0.0312,0.0201 0.064,0.04 0.0752,0.0751 -0.0307,0.0648 -0.0794,-0.004 -0.12785,-0.004 -0.0534,-3.8e-4 -0.13127,0.10142 -0.17676,0.0188 0.0114,-0.0438 0.0596,-0.0506 0.0715,-0.0938 -0.01,0.003 -0.0204,0.004 -0.0304,0.009 -0.0178,0.007 -0.0354,0.0165 -0.0538,0.0263 -0.024,0.0129 -0.0491,0.0256 -0.0777,0.0321 -0.0263,0.005 -0.0517,0.004 -0.0752,0.0112 -0.0451,0.0132 -0.0765,0.0464 -0.12407,0.0638 -0.0185,0.005 -0.0408,0.005 -0.0602,0.0112 -0.0453,0.0152 -0.0999,0.0422 -0.14666,0.0676 -0.0479,0.0258 -0.10186,0.0529 -0.13162,0.0789 -0.0162,0.0139 -0.0579,0.0631 -0.0565,0.0788 0.003,0.0223 0.0441,0.0298 0.0451,0.0526 -0.002,0.0139 -0.0244,0.0437 -0.007,0.0638 0.0154,0.0184 0.0462,0.005 0.0789,0.007 0.0574,0.007 0.095,0.0546 0.13914,0.0789 0.0333,0.0184 0.0828,0.0403 0.12049,0.045 0.0517,0.005 0.10945,-0.015 0.11653,0.0263 0.005,0.0397 -0.0486,0.0539 -0.0526,0.0788 0.0277,0.0367 -0.0189,0.0541 -0.0188,0.0863 10e-6,0.0262 0.0321,0.0652 0.0601,0.0675 0.0379,0.006 0.0934,-0.0372 0.10912,-0.075 0.0187,-0.045 0.011,-0.10615 0.0451,-0.13892 0.17525,0.005 0.3235,-0.0795 0.31221,-0.25902 -0.002,-0.0177 -0.0112,-0.0406 -0.007,-0.0602 0.004,-0.0289 0.0556,-0.0534 0.0488,-0.0901 0.0189,-0.005 0.0301,-0.0211 0.0399,-0.0382 0.0144,-0.0256 0.0256,-0.0549 0.0524,-0.0646 0.003,-5.8e-4 0.005,-0.003 0.005,-0.004 0.0153,-0.006 0.0315,-4.2e-4 0.0483,0.005 0.03,0.009 0.0627,0.0242 0.0986,0.0218 0.0183,-0.002 0.0419,-0.0175 0.0602,-0.0148 0.0367,0.005 0.059,0.0503 0.0866,0.0713 0.0244,0.0186 0.0502,0.0127 0.0565,0.0375 -0.007,0.0417 -0.0362,0.0431 -0.034,0.0816 5e-5,4.1e-4 -3e-5,5.9e-4 -3e-5,0.002 0.005,0.0343 0.0387,0.0605 0.0565,0.0638 0.0274,0.005 0.0668,-0.01 0.094,-0.0226 0.0296,-0.014 0.0565,-0.044 0.0824,-0.0651 0.0368,0.0283 0.0731,0.0573 0.10879,0.0869 0.005,0.0166 0.007,0.0317 0.008,0.042 0.004,0.0405 -0.004,0.0717 -0.004,0.1089 0.004,0.0634 0.0847,0.0569 0.12406,0.0901 0.012,0.01 0.0165,0.0358 0.0262,0.0488 0.0192,0.0254 0.0421,0.0254 0.0451,0.0525 0.007,0.0648 -0.0589,0.0703 -0.0528,0.14268 -0.0136,0.0282 -0.0478,0.0263 -0.0451,0.0638 0.004,0.0592 0.0897,0.0139 0.11284,0.0601 0.0125,0.0249 -0.004,0.0433 -0.0113,0.0788 0.0291,0.0348 0.0289,0.0901 -0.0224,0.0902 -0.0312,0 -0.0399,-0.0334 -0.0716,-0.0412 -0.0176,-0.004 -0.0414,-0.004 -0.0639,-0.007 -0.0191,-0.004 -0.042,-0.009 -0.0601,-0.0113 -0.0464,-0.004 -0.0967,0.008 -0.12418,-0.0188 0.0448,-0.0594 0.10428,-0.11781 0.16177,-0.16892 0.0173,-0.0153 0.0539,-0.0256 0.0451,-0.0563 -0.0321,-0.0281 -0.0713,0.003 -0.10153,0.0188 -0.0317,0.0178 -0.0696,0.0436 -0.10538,0.0488 -0.0622,0.009 -0.14471,-0.0183 -0.19554,0.0149 -0.007,0.0284 0.058,0.0174 0.0488,0.0601 -0.0249,0.004 -0.0485,0.005 -0.0677,-0.0113 -0.0174,-0.0156 -0.007,-0.0394 -0.0188,-0.0487 -0.0192,-0.0159 -0.0917,-0.0202 -0.12414,-0.0149 -0.0395,0.005 -0.0745,0.03 -0.0789,0.0638 0.0475,0.0222 0.12573,-0.0229 0.14296,0.0339 -0.0261,0.0467 -0.0872,0.0725 -0.079,0.13507 0.005,0.0243 0.0321,0.0565 0.0528,0.0601 0.0208,0.005 0.0324,-0.0171 0.0526,-0.0151 0.0213,0.003 0.0164,0.0263 0.0414,0.0226 0.0361,-0.0155 0.0562,-0.0662 0.0977,-0.0638 0.0497,0.0603 -0.045,0.0897 -0.0977,0.1089 -0.0602,0.0218 -0.13847,0.0333 -0.18437,0.0526 -0.0241,0.01 -0.11502,0.0978 -0.12788,0.03 -0.009,-0.0489 0.0451,-0.0348 0.0565,-0.075 -0.0581,-0.0113 -0.11245,0.025 -0.16545,0.045 -0.0757,0.0285 -0.20373,0.0466 -0.22195,0.13138 -0.004,0.017 0.007,0.0486 -0.004,0.0601 -0.009,0.009 -0.0629,0.011 -0.0866,0.0188 -0.0362,0.0124 -0.0679,0.0389 -0.0903,0.045 -0.0169,0.006 -0.0419,0.006 -0.0526,0.007 -0.0299,0.0116 -0.0409,0.0519 -0.0752,0.0788 -0.0141,0.011 -0.0452,0.019 -0.0565,0.0301 -0.0195,0.0194 -0.022,0.0679 -0.0564,0.075 -0.0219,0.003 -0.0396,-0.0164 -0.0602,-0.004 -0.004,0.0478 0.0169,0.11305 -0.006,0.16146 -0.0444,0.0362 -0.0935,0.0619 -0.15042,0.0938 -0.0316,0.0178 -0.0597,0.0223 -0.0978,0.0414 -0.0271,0.0134 -0.0517,0.0454 -0.0827,0.0638 -0.0717,0.0421 -0.15851,0.0922 -0.15795,0.19899 1e-5,0.0231 0.0121,0.048 0.015,0.075 0.003,0.0159 -0.003,0.0315 0,0.0488 0.004,0.0393 0.033,0.0892 0,0.11633 -0.0506,-0.0208 -0.11503,-0.0277 -0.15043,-0.0638 -0.01,-0.0372 0.0196,-0.0676 0.0151,-0.10142 -0.004,-0.0272 -0.0418,-0.0754 -0.0639,-0.0789 -0.0228,-0.005 -0.044,0.0206 -0.0677,0.0188 -0.0282,-0.004 -0.0542,-0.0408 -0.0904,-0.045 -0.0529,-0.005 -0.0918,0.0121 -0.15043,0.005 -0.0567,0.0301 -0.0734,0.0842 -0.14283,0.0788 -0.0244,-0.003 -0.0469,-0.0205 -0.0752,-0.0263 -0.0308,-0.005 -0.0772,-0.0173 -0.10912,-0.0149 -0.0639,0.006 -0.11049,0.0503 -0.16545,0.0788 -0.0485,0.0253 -0.11722,0.0566 -0.13166,0.1089 -0.008,0.0283 -0.002,0.0678 -0.0113,0.0938 -0.005,0.0173 -0.0212,0.0324 -0.03,0.0486 -0.0421,0.0769 -0.0771,0.17856 -0.0451,0.28916 0.005,0.0164 0.0466,0.1089 0.0639,0.12764 0.0194,0.0208 0.0765,0.0519 0.10901,0.0525 0.0276,5.5e-4 0.0598,-0.0141 0.0866,-0.0188 0.0309,-0.004 0.0697,-0.004 0.0978,-0.0148 0.0814,-0.0261 0.0653,-0.1358 0.14667,-0.17276 0.0355,-0.0161 0.0767,-0.0193 0.13913,-0.0224 0.0199,0.0166 0.0291,0.046 0.0263,0.0713 -0.004,0.0192 -0.0204,0.0364 -0.03,0.0638 -0.009,0.024 -0.01,0.052 -0.0188,0.0714 -0.0112,0.0253 -0.0361,0.0438 -0.0451,0.0676 -0.004,0.0155 -0.004,0.0348 -0.007,0.0486 -0.009,0.0248 -0.0419,0.0421 -0.0263,0.0676 0.0806,0.032 0.17798,-0.009 0.24827,0.005 0.0296,0.004 0.0908,0.0407 0.0902,0.0864 -3.6e-4,0.0341 -0.0263,0.0565 -0.03,0.0938 -0.004,0.047 -0.0242,0.10461 -0.0262,0.14262 -0.005,0.0623 0.0916,0.16979 0.15796,0.16893 0.0716,-0.002 0.11322,-0.071 0.19937,-0.0337 0.0285,0.0124 0.0589,0.0586 0.0904,0.0563 0.0261,-0.003 0.0654,-0.0474 0.0827,-0.0789 0.0212,-0.0384 0.0227,-0.0707 0.0601,-0.0901 0.0405,-0.0209 0.0726,-0.011 0.12416,-0.0301 0.023,-0.009 0.0431,-0.0232 0.0638,-0.0376 0.0183,-0.0125 0.0374,-0.0452 0.0602,-0.0226 0.03,0.0299 -0.0367,0.0469 -0.0113,0.0789 0.0521,0.0276 0.0789,-0.0513 0.11664,-0.0525 0.012,-3.8e-4 0.0538,0.0234 0.0752,0.0375 0.0293,0.0191 0.0393,0.0462 0.0715,0.0525 0.0205,0.005 0.0538,-0.008 0.0827,-0.005 0.0384,0.005 0.0613,0.0384 0.0903,0.0375 0.0354,-0.002 0.0524,-0.0395 0.0827,-0.0451 0.0663,-0.0121 0.0911,0.007 0.12033,0.0488 0.0328,0.005 0.034,-0.0378 0.0638,-0.0224 -0.0164,0.0328 0.005,0.0476 0.0188,0.075 0.009,0.0175 0.007,0.03 0.0151,0.0376 0.0179,0.0172 0.0526,0.0172 0.0789,0.0337 0.0277,0.0174 0.0433,0.0499 0.0752,0.0864 0.0329,0.0372 0.0878,0.076 0.13163,0.0788 0.0414,0.005 0.075,-0.0117 0.10912,-0.007 0.0778,0.01 0.12617,0.0483 0.18059,0.0901 0.0304,0.0233 0.0579,0.0395 0.0676,0.0675 0.006,0.0196 0.006,0.0459 0.0113,0.0675 0.0166,0.0469 0.0849,0.0694 0.0602,0.15016 0.0113,0.0236 0.0366,0.0322 0.0639,0.0488 0.0218,0.0133 0.0403,0.0412 0.0638,0.045 0.0154,0.004 0.0319,-0.005 0.0451,-0.004 0.0428,0.004 0.072,0.0196 0.10912,0.0339 0.023,0.009 0.0524,0.0122 0.0678,0.0226 0.0191,0.0129 0.0216,0.0561 0.0451,0.0675 0.0154,0.007 0.0495,-0.005 0.0752,0 0.0404,0.005 0.0951,0.0293 0.13162,0.0301 0.0221,4.8e-4 0.0405,-0.009 0.0601,-0.007 0.0458,0.005 0.0815,0.0323 0.11695,0.0646 -0.45309,0.73044 -1.18206,1.2726 -2.04025,1.47976 -0.004,-0.0329 -0.0122,-0.066 -0.0139,-0.0989 -0.004,-0.0714 0.008,-0.12177 -0.004,-0.18771 -0.009,-0.0499 -0.0196,-0.12629 -0.0376,-0.15768 -0.0201,-0.0349 -0.0992,-0.0943 -0.13911,-0.11642 -0.0262,-0.0146 -0.0579,-0.0197 -0.0866,-0.0338 -0.0613,-0.0301 -0.17997,-0.0934 -0.20686,-0.15394 -0.008,-0.0174 -0.006,-0.0406 -0.0151,-0.0601 -0.0164,-0.0385 -0.0509,-0.0717 -0.0752,-0.1089 -0.0465,-0.0708 -0.0839,-0.15969 -0.13165,-0.23273 -0.0242,-0.0372 -0.0451,-0.0792 -0.0715,-0.10879 -0.0155,-0.0174 -0.0651,-0.0339 -0.0715,-0.0602 -0.009,-0.0348 -0.0342,-0.0824 -0.0301,-0.1089 0.005,-0.0359 0.0754,-0.0648 0.0752,-0.0976 -2e-5,-0.0278 -0.0373,-0.044 -0.0451,-0.0675 -0.019,-0.0574 0.0112,-0.0911 0.0338,-0.1389 0.007,-0.0156 0.0149,-0.041 0.0227,-0.0525 0.0138,-0.0206 0.0419,-0.0264 0.0601,-0.0488 0.01,-0.0125 0.0166,-0.0387 0.0301,-0.0564 0.0285,-0.038 0.0747,-0.0521 0.0866,-0.0864 0.01,-0.0278 0.0153,-0.16733 0.004,-0.21397 -0.006,-0.0271 -0.0317,-0.0494 -0.0414,-0.075 -0.0171,-0.0452 -0.021,-0.0948 -0.0678,-0.0938 -0.0289,6e-4 -0.0492,0.0325 -0.0678,0.0525 -0.005,0.0267 -0.004,0.0557 -0.0301,0.0638 -0.0428,0.0127 -0.0592,-0.045 -0.10901,-0.0601 -0.0199,-0.006 -0.0516,-0.006 -0.0639,-0.0113 -0.0365,-0.0164 -0.0482,-0.0695 -0.0866,-0.0902 -0.0322,-0.0173 -0.0596,-0.0112 -0.0789,-0.0375 -0.008,-0.0181 -0.003,-0.0509 -0.005,-0.075 -0.0412,-0.0242 -0.0762,-0.11386 -0.12415,-0.13507 -0.0318,-0.0141 -0.0806,-0.0128 -0.12032,-0.0262 -0.0187,-0.005 -0.0331,-0.0146 -0.0528,-0.0188 -0.0242,-0.005 -0.0489,-0.005 -0.0676,-0.0151 -0.0745,-0.0368 -0.11465,-0.15643 -0.20688,-0.15388 -0.0394,0.002 -0.0772,0.0377 -0.11284,0.0375 -0.0354,-1.9e-4 -0.0948,-0.0283 -0.13922,-0.0488 -0.0461,-0.0212 -0.0974,-0.0331 -0.13534,-0.0525 -0.0308,-0.0156 -0.0521,-0.0444 -0.079,-0.0564 -0.0205,-0.009 -0.0508,-0.011 -0.0677,-0.0187 -0.0241,-0.0114 -0.0491,-0.0356 -0.079,-0.0565 -0.0284,-0.0197 -0.0591,-0.0495 -0.0602,-0.075 -0.002,-0.0294 0.0271,-0.0544 0.0301,-0.0827 0.01,-0.0894 -0.0563,-0.15363 -0.0978,-0.20645 -0.0307,-0.0393 -0.0668,-0.0726 -0.0977,-0.1089 0.003,-0.0242 0.003,-0.0284 0,-0.0525 -0.0234,-0.0228 -0.043,-0.0562 -0.0678,-0.0902 -0.0223,-0.0307 -0.0658,-0.0632 -0.0715,-0.0976 -0.007,-0.0421 0.0161,-0.0792 0,-0.12022 -0.0268,-0.068 -0.12129,-0.0372 -0.10912,0.0526 0.006,0.0248 0.0384,0.0581 0.049,0.0826 0.011,0.0251 0.009,0.0562 0.0188,0.0863 0.01,0.0289 0.0388,0.0539 0.0489,0.0865 0.016,0.0514 0.0155,0.10681 0.03,0.13889 0.0129,0.0284 0.0605,0.0556 0.0338,0.0901 -0.0356,0.007 -0.0494,-0.0283 -0.0715,-0.0488 -0.0124,-0.0114 -0.0571,-0.0333 -0.0639,-0.0601 -0.006,-0.0221 0.014,-0.0518 0.007,-0.0789 -0.0129,-0.0529 -0.12007,-0.0542 -0.12045,-0.1089 -1.9e-4,-0.0342 0.0449,-0.0383 0.0452,-0.0714 3e-4,-0.0362 -0.0494,-0.0669 -0.0602,-0.0976 -0.01,-0.0283 -0.0113,-0.0729 -0.015,-0.1126 -0.004,-0.0372 0.002,-0.0803 -0.007,-0.1089 -0.008,-0.0257 -0.0465,-0.0613 -0.0715,-0.0751 -0.0329,-0.0183 -0.0591,-0.011 -0.0752,-0.0375 -0.014,-0.0234 -0.0232,-0.0724 -0.0262,-0.0976 -0.005,-0.045 -0.002,-0.0946 -0.005,-0.14268 -0.004,-0.0483 -0.007,-0.0946 0,-0.1464 0.0185,-0.0363 0.0526,-0.0541 0.0716,-0.0902 0.0133,-0.0251 0.0151,-0.0559 0.03,-0.0826 0.0276,-0.0489 0.0876,-0.0944 0.12793,-0.1427 0.0436,-0.0521 0.0836,-0.10197 0.10901,-0.16149 0.009,-0.0212 0.0336,-0.068 0.0301,-0.0938 -0.005,-0.0361 -0.0731,-0.0659 -0.0678,-0.10879 0.004,-0.0265 0.0414,-0.0263 0.0528,-0.0525 0.005,-0.0135 0.011,-0.0514 0.0113,-0.0676 5.7e-4,-0.0361 -0.0185,-0.0739 -0.0113,-0.11264 0.005,-0.033 0.0553,-0.0464 0.03,-0.0826 -0.0251,-0.036 -0.0701,0.0194 -0.0978,-0.004 -0.0254,-0.0213 0.005,-0.0471 0.007,-0.0863 0.002,-0.0156 -0.009,-0.0334 -0.007,-0.0451 0.004,-0.0167 0.0351,-0.045 0.0263,-0.0563 -0.0135,-0.0174 -0.0284,-0.0519 -0.0497,-0.0797 0.41954,-0.33557 0.9223,-0.57148 1.47204,-0.67125 z"
           id="path11"
           inkscape:connector-curvature="0" />
      </g>
      <path
         d="m 453.03491,546.11203 c -0.0884,0.6926 -0.0316,1.29059 0.90678,1.31356 0.25452,0.36017 0.39435,1.01856 0.96502,0.55674 0.0257,0.41421 -0.5991,1.10361 0.48414,1.07038 -0.11404,0.51896 -0.37894,1.16464 0.59322,0.77119 -0.006,0.18649 -0.3349,0.50724 0.14407,0.49152 0.41615,0.33007 0.46997,-0.0367 0.61016,-0.23728 0.35082,-0.18805 0.74918,0.088 0.95763,-0.72882 0.2932,0.0749 0.38397,-0.0105 0.1356,-0.3644 -0.0469,-0.46956 -0.41691,-0.32864 -0.64407,-0.45763 m 1.19491,-2.97457 c -0.65149,0.806 -1.54192,0.61281 -2.43644,0.40253 0.0402,0.3711 -0.14896,0.63031 -0.57203,0.77543 0.57919,0.0903 1.05457,0.35854 0.70763,1.26271 0.72339,-0.32881 1.1718,-0.2648 1.10593,0.5339"
         style="fill:none;stroke:#ab10d2;stroke-width:0.1;stroke-linecap:butt;stroke-linejoin:round;stroke-miterlimit:4;stroke-dasharray:none;stroke-opacity:1;paint-order:normal"
         id="path918"
         inkscape:connector-curvature="0" />
    </g>
    <g
       id="g2146"
       transform="matrix(0.13508518,0,0,0.13508518,382.17953,474.58356)">
      <polygon
         transform="matrix(0.06666666,0,0,0.06666666,415.88811,506.73064)"
         id="polygon2989"
         points="437.367,100.62 404.321,470.819 255.778,512 107.644,470.877 74.633,100.62 "
         style="fill:#264de4" />
      <polygon
         transform="matrix(0.06666666,0,0,0.06666666,415.88811,506.73064)"
         id="polygon2991"
         points="256,130.894 256,480.523 376.03,447.246 404.27,130.894 "
         style="fill:#2965f1" />
      <polygon
         transform="matrix(0.06666666,0,0,0.06666666,415.88811,506.73064)"
         id="polygon2993"
         points="256,313.627 256,268.217 150.31,268.217 154.38,313.627 "
         style="fill:#ebebeb" />
      <polygon
         transform="matrix(0.06666666,0,0,0.06666666,415.88811,506.73064)"
         id="polygon2995"
         points="256,176.305 255.843,176.305 142.132,176.305 146.26,221.716 256,221.716 "
         style="fill:#ebebeb" />
      <polygon
         transform="matrix(0.06666666,0,0,0.06666666,415.88811,506.73064)"
         id="polygon2997"
         points="205.227,372.55 201.994,336.333 177.419,336.333 156.409,336.333 162.771,407.634 255.791,433.457 256,433.399 256,386.153 255.801,386.206 "
         style="fill:#ebebeb" />
      <polygon
         transform="matrix(0.06666666,0,0,0.06666666,415.88811,506.73064)"
         id="polygon3005"
         points="311.761,313.627 306.49,372.521 255.843,386.191 255.843,433.435 348.937,407.634 349.62,399.962 360.291,280.411 361.399,268.217 369.597,176.305 255.843,176.305 255.843,221.716 319.831,221.716 315.699,268.217 255.843,268.217 255.843,313.627 "
         style="fill:#ffffff" />
    </g>
    <g
       id="g2152"
       transform="matrix(0.18530203,0,0,0.18530203,371.30064,448.4712)">
      <path
         id="path1707"
         d="m 388.45362,549.60307 -2.0625,-23.15 h 22.675 l -2.0625,23.1375 -9.29375,2.575"
         inkscape:connector-curvature="0"
         style="fill:#e44d26;stroke-width:0.0625" />
      <path
         id="path1709"
         d="m 397.72862,550.19682 v -21.84375 h 9.26875 l -1.76875,19.75"
         inkscape:connector-curvature="0"
         style="fill:#f16529;stroke-width:0.0625" />
      <path
         id="path1711"
         d="m 390.60362,531.18432 h 7.125 v 2.8375 h -4.0125 l 0.2625,2.90625 h 3.75 v 2.83125 h -6.35 m 0.125,1.425 h 2.85 l 0.2,2.26875 3.175,0.85 v 2.9625 l -5.825,-1.625"
         inkscape:connector-curvature="0"
         style="fill:#ebebeb;stroke-width:0.0625" />
      <path
         id="path1713"
         d="m 404.82862,531.18432 h -7.1125 v 2.8375 h 6.85 m -0.25625,2.90625 h -6.59375 v 2.8375 h 3.5 l -0.33125,3.6875 -3.16875,0.85 v 2.95 l 5.8125,-1.6125"
         inkscape:connector-curvature="0"
         style="fill:#ffffff;stroke-width:0.0625" />
    </g>
    <g
       id="g2114"
       transform="matrix(0.729,0,0,0.729,139.61259,137.7797)">
      <g
         transform="matrix(0.06328125,0,0,0.06328125,406.46155,553.98478)"
         id="g3768">
        <path
           style="fill:#d6ba32"
           inkscape:connector-curvature="0"
           d="m 439.03,51.2 c 9.97,-0.42 19.96,0.12 29.94,-0.05 11.01,-0.35 22.01,-0.06 33.03,-0.02 8.74,0.02 17.48,-0.04 26.22,0.03 -2.75,30.33 -5.52,60.66 -8.07,91.01 -11.71,3.33 -23.43,6.61 -35.14,9.92 -1.5,0.62 -3.04,0.04 -4.48,-0.35 -11.13,-3.2 -22.26,-6.37 -33.41,-9.45 -2.9,-30.34 -5.63,-60.71 -8.09,-91.09 m 44.78,7.91 c -0.41,14.96 -0.06,29.92 -0.18,44.88 0.11,13.68 -0.2,27.37 0.16,41.05 9.84,-2.32 19.55,-5.17 29.26,-7.98 2.44,-25.97 4.82,-51.94 6.86,-77.94 -12.03,-0.12 -24.07,0.02 -36.1,-0.01 m -12.52,58.42 c -5.78,-1.58 -11.49,-3.4 -17.35,-4.65 -0.17,3.48 -0.11,6.96 0.29,10.42 8.58,2.09 16.98,4.84 25.57,6.89 0.06,-19.81 -0.03,-39.63 0.04,-59.44 -2.8,-0.07 -5.6,-0.11 -8.4,-0.17 -0.32,15.64 -0.02,31.3 -0.15,46.95 z"
           id="path3770" />
      </g>
      <g
         transform="matrix(0.06328125,0,0,0.06328125,406.46155,553.98478)"
         id="g3796">
        <path
           style="fill:#ffda3e"
           inkscape:connector-curvature="0"
           d="m 483.81,59.11 c 12.03,0.03 24.07,-0.11 36.1,0.01 -2.04,26 -4.42,51.97 -6.86,77.94 -9.71,2.81 -19.42,5.66 -29.26,7.98 -0.36,-13.68 -0.05,-27.37 -0.16,-41.05 0.12,-14.96 -0.23,-29.92 0.18,-44.88 m 3.37,11.63 c 0.04,12.88 0.05,25.77 0,38.65 5.88,-0.95 11.74,-2.04 17.6,-3.11 -0.09,3 -0.21,6 -0.34,9 -5.71,1.52 -11.41,3.09 -17.15,4.5 -0.09,3.46 -0.1,6.92 -0.07,10.39 7.23,-1.62 14.35,-3.66 21.53,-5.47 0.9,-0.42 2.63,-0.37 2.55,-1.78 0.87,-9.26 1.41,-18.56 2.25,-27.84 -5.95,0.49 -11.84,1.49 -17.79,1.9 -0.05,-5.26 -0.06,-10.52 0.02,-15.78 6.26,0 12.51,0 18.77,0.01 0.4,-3.51 0.75,-7.03 1.02,-10.55 -9.46,0.04 -18.93,-0.09 -28.39,0.08 z"
           id="path3798" />
      </g>
      <path
         id="path3806"
         d="m 436.28537,561.42222 c 0.008,-0.99035 -0.0108,-1.98133 0.009,-2.97105 0.17719,0.004 0.35437,0.006 0.53156,0.0108 -0.004,1.2536 10e-4,2.50783 -0.003,3.76143 -0.54358,-0.12972 -1.07515,-0.30375 -1.6181,-0.436 -0.0253,-0.21896 -0.0291,-0.43918 -0.0183,-0.65939 0.37083,0.0791 0.73216,0.19427 1.09793,0.29425 z"
         inkscape:connector-curvature="0"
         style="fill:#ebebeb;stroke-width:0.050625" />
    </g>
    <g
       id="g2033"
       transform="matrix(0.6561,0,0,0.6561,166.87088,183.97331)">
      <circle
         style="stroke-width:0.0625"
         id="circle1901"
         r="1.625"
         cx="450.94427"
         cy="555.96411" />
      <use
         id="use1903"
         xlink:href="#a"
         style="stroke:#000000;stroke-width:12"
         x="0"
         y="0"
         width="100%"
         height="100%"
         transform="translate(2.5000001e-6,2.5000001e-6)" />
      <g
         transform="matrix(0.0625,0,0,0.0625,450.94429,555.96409)"
         id="a">
        <g
           id="b">
          <g
             id="c">
            <circle
               r="7.0999999"
               cy="-31.6"
               id="n"
               cx="0"
               style="fill:#ffffff" />
            <path
               id="path1906"
               d="M 0,31.6 V -31.6"
               inkscape:connector-curvature="0"
               style="stroke:#ffffff;stroke-width:10" />
            <use
               id="use1908"
               xlink:href="#n"
               y="63.200001"
               x="0"
               width="100%"
               height="100%" />
          </g>
          <use
             id="use1911"
             xlink:href="#c"
             transform="rotate(90)"
             x="0"
             y="0"
             width="100%"
             height="100%" />
        </g>
        <use
           id="use1914"
           xlink:href="#b"
           transform="rotate(45)"
           x="0"
           y="0"
           width="100%"
           height="100%" />
      </g>
      <path
         style="stroke-width:0.0625"
         d="m 453.73679,555.96409 v 2.5 c 0,0.20831 -0.10419,0.3125 -0.3125,0.3125 h -4.96125 c -0.20831,0 -0.3125,-0.10419 -0.3125,-0.3125 v -2.5"
         id="text-backdrop"
         inkscape:connector-curvature="0" />
      <path
         d="m 453.19429,556.22721 c 0.18125,0 0.33125,0.15001 0.33125,0.33126 v 1.125 c -1.725,-0.2125 -3.43125,-0.5 -5.125,-0.48125 v -0.6375 c 0,-0.18313 0.15,-0.33125 0.33125,-0.33125 z"
         id="shine"
         inkscape:connector-curvature="0"
         style="fill:#3f3f3f;stroke-width:0.0625" />
      <use
         transform="matrix(0.0625,0,0,0.0625,450.94429,555.96409)"
         id="use1919"
         xlink:href="#s"
         style="stroke:#000000;stroke-width:7.4000001"
         x="0"
         y="0"
         width="100%"
         height="100%" />
      <g
         transform="matrix(0.0625,0,0,0.0625,450.94429,555.96409)"
         id="svg-text"
         style="stroke:#ffffff;stroke-width:6.4000001">
        <g
           id="s">
          <path
             id="path1921"
             d="m -31.74,31.17 a 8.26,8.26 0 1 0 8.26,-8.26 8.26,8.26 0 1 1 8.26,-8.26 M 23.23,23 h 8.288 v 8.26 a 8.26,8.26 0 0 1 -16.52,0 V 14.74 a 8.26,8.26 0 0 1 16.52,0"
             inkscape:connector-curvature="0"
             style="fill:none" />
          <g
             id="g1927"
             style="stroke:#000000;stroke-width:0.5">
            <path
               id="path1923"
               d="m 4.76,3 h 6.83 L 3.35,42.8 H -3.5 L -11.76,3 h 6.85 l 4.84,23.3 z"
               inkscape:connector-curvature="0"
               style="fill:#ffffff" />
            <path
               id="path1925"
               d="m 23.23,19.55 v 6.9 m 4.838,-11.71 h 6.9 m -70.16,16.43 h 6.9 m 9.62,-16.52 h 6.9"
               inkscape:connector-curvature="0"
               style="stroke-linecap:square" />
          </g>
        </g>
      </g>
    </g>
  </g>
</svg>
