<?xml version="1.0" encoding="UTF-8" standalone="no"?>
<svg
   xmlns:dc="http://purl.org/dc/elements/1.1/"
   xmlns:cc="http://creativecommons.org/ns#"
   xmlns:rdf="http://www.w3.org/1999/02/22-rdf-syntax-ns#"
   xmlns:svg="http://www.w3.org/2000/svg"
   xmlns="http://www.w3.org/2000/svg"
   xmlns:xlink="http://www.w3.org/1999/xlink"
   xmlns:sodipodi="http://sodipodi.sourceforge.net/DTD/sodipodi-0.dtd"
   xmlns:inkscape="http://www.inkscape.org/namespaces/inkscape"
   viewBox="0 0 32 8"
   version="1.1"
   id="svg15"
   sodipodi:docname="dataanalysis.svg"
   width="32pc"
   height="8pc"
   inkscape:version="0.92.2 (5c3e80d, 2017-08-06)">
  <metadata
     id="metadata19">
    <rdf:RDF>
      <cc:Work
         rdf:about="">
        <dc:format>image/svg+xml</dc:format>
        <dc:type
           rdf:resource="http://purl.org/dc/dcmitype/StillImage" />
        <dc:title></dc:title>
      </cc:Work>
    </rdf:RDF>
  </metadata>
  <sodipodi:namedview
     pagecolor="#ffffff"
     bordercolor="#666666"
     borderopacity="1"
     objecttolerance="10"
     gridtolerance="10"
     guidetolerance="10"
     inkscape:pageopacity="0"
     inkscape:pageshadow="2"
     inkscape:window-width="1920"
     inkscape:window-height="1057"
     id="namedview17"
     showgrid="false"
     inkscape:document-units="pc"
     units="pc"
     inkscape:zoom="1.3037281"
     inkscape:cx="53.717495"
     inkscape:cy="40.48671"
     inkscape:window-x="-8"
     inkscape:window-y="-8"
     inkscape:window-maximized="1"
     inkscape:current-layer="g13" />
  <defs
     id="defs7">
    <linearGradient
       id="0"
       x1="451.69"
       y1="556.78998"
       x2="451.34"
       y2="528.78998"
       gradientUnits="userSpaceOnUse"
       gradientTransform="translate(-20.158536,-10.28301)">
      <stop
         stop-color="#8798a9"
         id="stop2" />
      <stop
         offset="1"
         stop-color="#aeb6be"
         id="stop4" />
    </linearGradient>
    <marker
       style="overflow:visible"
       id="TriangleOutS"
       orient="auto"
       refY="0"
       refX="0">
      <path
         inkscape:connector-curvature="0"
         style="fill-rule:evenodd;stroke:#000000;stroke-width:1.00000003pt;marker-start:none"
         id="path3322"
         transform="scale(0.2)"
         d="M 5.77,0 -2.88,5 V -5 Z" />
    </marker>
    <marker
       style="overflow:visible"
       id="marker1068"
       orient="auto"
       refY="0"
       refX="0">
      <path
         inkscape:connector-curvature="0"
         style="fill-rule:evenodd;stroke:#000000;stroke-width:1.00000003pt;marker-start:none"
         id="path1066"
         transform="scale(0.2)"
         d="M 5.77,0 -2.88,5 V -5 Z" />
    </marker>
    <marker
       style="overflow:visible"
       id="marker1072"
       orient="auto"
       refY="0"
       refX="0">
      <path
         inkscape:connector-curvature="0"
         style="fill-rule:evenodd;stroke:#000000;stroke-width:1.00000003pt;marker-start:none"
         id="path1070"
         transform="scale(0.2)"
         d="M 5.77,0 -2.88,5 V -5 Z" />
    </marker>
    <marker
       style="overflow:visible"
       id="marker1076"
       orient="auto"
       refY="0"
       refX="0">
      <path
         inkscape:connector-curvature="0"
         style="fill-rule:evenodd;stroke:#000000;stroke-width:1.00000003pt;marker-start:none"
         id="path1074"
         transform="scale(0.2)"
         d="M 5.77,0 -2.88,5 V -5 Z" />
    </marker>
    <marker
       style="overflow:visible"
       id="marker1080"
       orient="auto"
       refY="0"
       refX="0">
      <path
         inkscape:connector-curvature="0"
         style="fill-rule:evenodd;stroke:#000000;stroke-width:1.00000003pt;marker-start:none"
         id="path1078"
         transform="scale(0.2)"
         d="M 5.77,0 -2.88,5 V -5 Z" />
    </marker>
    <marker
       style="overflow:visible"
       id="marker1084"
       orient="auto"
       refY="0"
       refX="0">
      <path
         inkscape:connector-curvature="0"
         style="fill-rule:evenodd;stroke:#000000;stroke-width:1.00000003pt;marker-start:none"
         id="path1082"
         transform="scale(0.2)"
         d="M 5.77,0 -2.88,5 V -5 Z" />
    </marker>
    <marker
       style="overflow:visible"
       id="marker1088"
       orient="auto"
       refY="0"
       refX="0">
      <path
         inkscape:connector-curvature="0"
         style="fill-rule:evenodd;stroke:#000000;stroke-width:1.00000003pt;marker-start:none"
         id="path1086"
         transform="scale(0.2)"
         d="M 5.77,0 -2.88,5 V -5 Z" />
    </marker>
    <marker
       style="overflow:visible"
       id="marker1092"
       orient="auto"
       refY="0"
       refX="0">
      <path
         inkscape:connector-curvature="0"
         style="fill-rule:evenodd;stroke:#000000;stroke-width:1.00000003pt;marker-start:none"
         id="path1090"
         transform="scale(0.2)"
         d="M 5.77,0 -2.88,5 V -5 Z" />
    </marker>
    <marker
       style="overflow:visible"
       id="marker1096"
       orient="auto"
       refY="0"
       refX="0">
      <path
         inkscape:connector-curvature="0"
         style="fill-rule:evenodd;stroke:#000000;stroke-width:1.00000003pt;marker-start:none"
         id="path1094"
         transform="scale(0.2)"
         d="M 5.77,0 -2.88,5 V -5 Z" />
    </marker>
    <marker
       style="overflow:visible"
       id="marker1100"
       orient="auto"
       refY="0"
       refX="0">
      <path
         inkscape:connector-curvature="0"
         style="fill-rule:evenodd;stroke:#000000;stroke-width:1.00000003pt;marker-start:none"
         id="path1098"
         transform="scale(0.2)"
         d="M 5.77,0 -2.88,5 V -5 Z" />
    </marker>
    <linearGradient
       spreadMethod="pad"
       gradientUnits="userSpaceOnUse"
       y2="594.19509"
       y1="3.0538132"
       x2="591.47364"
       x1="0.33237135"
       id="gradientFill-1"
       gradientTransform="scale(1.2215253,0.81864864)">
      <stop
         id="stop1290"
         stop-opacity="1"
         stop-color="rgb(203,206,208)"
         offset="0" />
      <stop
         id="stop1292"
         stop-opacity="1"
         stop-color="rgb(132,131,139)"
         offset="1" />
    </linearGradient>
    <linearGradient
       spreadMethod="pad"
       gradientUnits="userSpaceOnUse"
       y2="554.21308"
       y1="150.98079"
       x2="703.60365"
       x1="300.37136"
       id="gradientFill-2"
       gradientTransform="scale(0.99044064,1.0096516)">
      <stop
         id="stop1295"
         stop-opacity="1"
         stop-color="rgb(39,109,195)"
         offset="0" />
      <stop
         id="stop1297"
         stop-opacity="1"
         stop-color="rgb(22,92,170)"
         offset="1" />
    </linearGradient>
    <linearGradient
       id="linearGradient4671">
      <stop
         id="stop4673"
         offset="0"
         style="stop-color:#ffc836;stop-opacity:1" />
      <stop
         id="stop4675"
         offset="1"
         style="stop-color:#ffe873;stop-opacity:1" />
    </linearGradient>
    <linearGradient
       gradientUnits="userSpaceOnUse"
       xlink:href="#linearGradient4671"
       id="linearGradient1874"
       y2="144.75717"
       x2="-65.308502"
       y1="144.75717"
       x1="224.23996"
       gradientTransform="matrix(1.200851,0,0,1.200851,410.87757,425.08179)" />
    <linearGradient
       id="linearGradient4689">
      <stop
         id="stop4691"
         offset="0"
         style="stop-color:#366a96;stop-opacity:1" />
      <stop
         id="stop4693"
         offset="1"
         style="stop-color:#3679b0;stop-opacity:1" />
    </linearGradient>
    <linearGradient
       gradientUnits="userSpaceOnUse"
       xlink:href="#linearGradient4689"
       id="linearGradient1872"
       y2="76.313133"
       x2="26.670298"
       y1="77.475983"
       x1="172.94208"
       gradientTransform="matrix(1.200851,0,0,1.200851,410.87757,425.08179)" />
  </defs>
  <g
     transform="translate(-435.34,-543.29)"
     id="g13"
     style="stroke:#1f2a47">
    <g
       id="g2406"
       transform="matrix(0.01747533,0,0,0.01747533,445.13051,542.50103)">
      <path
         inkscape:connector-curvature="0"
         style="opacity:1;fill:#ab10d2;fill-opacity:1;fill-rule:nonzero;stroke:none;stroke-width:1;stroke-linecap:butt;stroke-linejoin:miter;stroke-miterlimit:4;stroke-dasharray:1, 1;stroke-dashoffset:0;stroke-opacity:1"
         id="path3160"
         transform="translate(177.88048,90.628287)"
         d="m 143.96258,136.44534 c 0.005,15.87233 -12.8605,28.74211 -28.73282,28.74211 -15.872329,0 -28.737954,-12.86978 -28.732825,-28.74211 -0.0051,-15.87233 12.860496,-28.74211 28.732825,-28.74211 15.87232,0 28.73795,12.86978 28.73282,28.74211 z" />
      <path
         inkscape:connector-curvature="0"
         style="fill:none;fill-rule:evenodd;stroke:#000000;stroke-width:8;stroke-linecap:butt;stroke-linejoin:miter;stroke-miterlimit:4;stroke-dasharray:none;stroke-opacity:1;marker-end:url(#TriangleOutS)"
         id="path6080"
         d="m 190.27566,343.52799 85.30589,-94.78432" />
      <path
         inkscape:connector-curvature="0"
         style="opacity:1;fill:#047391;fill-opacity:1;fill-rule:nonzero;stroke:none;stroke-width:1;stroke-linecap:butt;stroke-linejoin:miter;stroke-miterlimit:4;stroke-dasharray:1, 1;stroke-dashoffset:0;stroke-opacity:1"
         id="path3166"
         transform="translate(64.551296,218.27594)"
         d="m 143.96258,136.44534 c 0.005,15.87233 -12.8605,28.74211 -28.73282,28.74211 -15.872329,0 -28.737954,-12.86978 -28.732825,-28.74211 -0.0051,-15.87233 12.860496,-28.74211 28.732825,-28.74211 15.87232,0 28.73795,12.86978 28.73282,28.74211 z" />
      <path
         inkscape:connector-curvature="0"
         style="fill:none;fill-rule:evenodd;stroke:#000000;stroke-width:10;stroke-linecap:butt;stroke-linejoin:miter;stroke-miterlimit:4;stroke-dasharray:none;stroke-opacity:1;marker-end:url(#TriangleOutS)"
         id="path6076"
         d="m 180.79723,185.84134 85.30589,31.882" />
      <path
         inkscape:connector-curvature="0"
         style="fill:none;fill-rule:evenodd;stroke:#000000;stroke-width:10;stroke-linecap:butt;stroke-linejoin:miter;stroke-miterlimit:4;stroke-dasharray:none;stroke-opacity:1;marker-end:url(#TriangleOutS)"
         id="path6078"
         d="m 69.641074,299.58253 84.444206,43.94546" />
      <path
         inkscape:connector-curvature="0"
         style="opacity:1;fill:#047391;fill-opacity:1;fill-rule:nonzero;stroke:none;stroke-width:1;stroke-linecap:butt;stroke-linejoin:miter;stroke-miterlimit:4;stroke-dasharray:1, 1;stroke-dashoffset:0;stroke-opacity:1"
         id="path3156"
         transform="translate(64.551296,48.485249)"
         d="m 143.96258,136.44534 c 0.005,15.87233 -12.8605,28.74211 -28.73282,28.74211 -15.872329,0 -28.737954,-12.86978 -28.732825,-28.74211 -0.0051,-15.87233 12.860496,-28.74211 28.732825,-28.74211 15.87232,0 28.73795,12.86978 28.73282,28.74211 z" />
      <path
         inkscape:connector-curvature="0"
         style="fill:none;fill-rule:evenodd;stroke:#000000;stroke-width:5;stroke-linecap:butt;stroke-linejoin:miter;stroke-miterlimit:4;stroke-dasharray:none;stroke-opacity:1;marker-end:url(#TriangleOutS)"
         id="path6086"
         d="M 70.502751,297.85918 158.39367,203.93653" />
      <path
         inkscape:connector-curvature="0"
         style="fill:none;fill-rule:evenodd;stroke:#000000;stroke-width:5;stroke-linecap:butt;stroke-linejoin:miter;stroke-miterlimit:4;stroke-dasharray:none;stroke-opacity:1;marker-end:url(#TriangleOutS)"
         id="path6088"
         d="m 187.69063,265.97718 80.99752,-30.15865" />
      <path
         inkscape:connector-curvature="0"
         style="opacity:1;fill:#047391;fill-opacity:1;fill-rule:nonzero;stroke:none;stroke-width:1;stroke-linecap:butt;stroke-linejoin:miter;stroke-miterlimit:4;stroke-dasharray:1, 1;stroke-dashoffset:0;stroke-opacity:1"
         id="path3164"
         transform="translate(64.551296,133.3806)"
         d="m 143.96258,136.44534 c 0.005,15.87233 -12.8605,28.74211 -28.73282,28.74211 -15.872329,0 -28.737954,-12.86978 -28.732825,-28.74211 -0.0051,-15.87233 12.860496,-28.74211 28.732825,-28.74211 15.87232,0 28.73795,12.86978 28.73282,28.74211 z" />
      <path
         inkscape:connector-curvature="0"
         style="fill:none;fill-rule:evenodd;stroke:#000000;stroke-width:8;stroke-linecap:butt;stroke-linejoin:miter;stroke-miterlimit:4;stroke-dasharray:none;stroke-opacity:1;marker-end:url(#TriangleOutS)"
         id="path6084"
         d="M 71.364427,300.44421 150.63859,277.17896" />
      <path
         inkscape:connector-curvature="0"
         style="opacity:1;fill:#00a33d;fill-opacity:1;fill-rule:nonzero;stroke:none;stroke-width:1;stroke-linecap:butt;stroke-linejoin:miter;stroke-miterlimit:4;stroke-dasharray:1, 1;stroke-dashoffset:0;stroke-opacity:1"
         id="path3162"
         transform="translate(-49.082537,162.22065)"
         d="m 143.96258,136.44534 c 0.005,15.87233 -12.8605,28.74211 -28.73282,28.74211 -15.872329,0 -28.737954,-12.86978 -28.732825,-28.74211 -0.0051,-15.87233 12.860496,-28.74211 28.732825,-28.74211 15.87232,0 28.73795,12.86978 28.73282,28.74211 z" />
      <path
         inkscape:connector-curvature="0"
         style="fill:none;fill-rule:evenodd;stroke:#000000;stroke-width:8;stroke-linecap:butt;stroke-linejoin:miter;stroke-miterlimit:4;stroke-dasharray:none;stroke-opacity:1;marker-end:url(#TriangleOutS)"
         id="path6082"
         d="m 73.087778,163.43779 85.305892,83.58253" />
      <path
         inkscape:connector-curvature="0"
         style="fill:none;fill-rule:evenodd;stroke:#000000;stroke-width:5;stroke-linecap:butt;stroke-linejoin:miter;stroke-miterlimit:4;stroke-dasharray:none;stroke-opacity:1;marker-end:url(#TriangleOutS)"
         id="path6090"
         d="m 185.1056,103.98216 90.47595,100.81605" />
      <path
         inkscape:connector-curvature="0"
         style="opacity:1;fill:#047391;fill-opacity:1;fill-rule:nonzero;stroke:none;stroke-width:1;stroke-linecap:butt;stroke-linejoin:miter;stroke-miterlimit:4;stroke-dasharray:1, 1;stroke-dashoffset:0;stroke-opacity:1"
         id="path3158"
         transform="translate(64.551296,-36.410076)"
         d="m 143.96258,136.44534 c 0.005,15.87233 -12.8605,28.74211 -28.73282,28.74211 -15.872329,0 -28.737954,-12.86978 -28.732825,-28.74211 -0.0051,-15.87233 12.860496,-28.74211 28.732825,-28.74211 15.87232,0 28.73795,12.86978 28.73282,28.74211 z" />
      <path
         inkscape:connector-curvature="0"
         style="fill:none;fill-rule:evenodd;stroke:#000000;stroke-width:10;stroke-linecap:butt;stroke-linejoin:miter;stroke-miterlimit:4;stroke-dasharray:none;stroke-opacity:1;marker-end:url(#TriangleOutS)"
         id="path3168"
         d="M 69.641074,154.82102 154.08528,109.15221" />
      <path
         inkscape:connector-curvature="0"
         style="fill:none;fill-rule:evenodd;stroke:#000000;stroke-width:10;stroke-linecap:butt;stroke-linejoin:miter;stroke-miterlimit:4;stroke-dasharray:none;stroke-opacity:1;marker-end:url(#TriangleOutS)"
         id="path6092"
         d="m 71.364424,157.40605 81.859186,21.54188" />
      <path
         inkscape:connector-curvature="0"
         style="opacity:1;fill:#00a33d;fill-opacity:1;fill-rule:nonzero;stroke:none;stroke-width:1;stroke-linecap:butt;stroke-linejoin:miter;stroke-miterlimit:4;stroke-dasharray:1, 1;stroke-dashoffset:0;stroke-opacity:1"
         id="path2384"
         transform="translate(-49.082537,19.949868)"
         d="m 143.96258,136.44534 c 0.005,15.87233 -12.8605,28.74211 -28.73282,28.74211 -15.872329,0 -28.737954,-12.86978 -28.732825,-28.74211 -0.0051,-15.87233 12.860496,-28.74211 28.732825,-28.74211 15.87232,0 28.73795,12.86978 28.73282,28.74211 z" />
    </g>
    <g
       id="g1266"
       transform="matrix(0.81,0,0,0.81,86.441097,104.80472)">
      <circle
         id="circle1017"
         r="0.66723961"
         cy="547.18829"
         cx="453.68124"
         style="fill:#ab10d2;fill-opacity:1;stroke:#231f20;stroke-width:0.05004297" />
      <circle
         id="circle1019"
         r="0.66723961"
         cy="545.85382"
         cx="452.34674"
         style="fill:#ab10d2;fill-opacity:1;stroke:#231f20;stroke-width:0.05004297" />
      <circle
         id="circle1021"
         r="0.66723961"
         cy="545.85382"
         cx="455.01572"
         style="fill:#047391;fill-opacity:1;stroke:#000000;stroke-width:0.05004297" />
      <circle
         id="circle1023"
         r="0.66723961"
         cy="547.18829"
         cx="456.35019"
         style="fill:#047391;fill-opacity:1;stroke:#000000;stroke-width:0.05004297" />
      <circle
         id="circle1025"
         r="0.66723961"
         cy="548.52277"
         cx="455.01572"
         style="fill:#047391;fill-opacity:1;stroke:#000000;stroke-width:0.05004297" />
      <circle
         id="circle1027"
         r="0.66723961"
         cy="548.52277"
         cx="457.668"
         style="fill:#ab10d2;fill-opacity:1;stroke:#000000;stroke-width:0.05004297" />
      <path
         id="path1029"
         stroke-miterlimit="10"
         d="M 454.31511,544.01391"
         inkscape:connector-curvature="0"
         style="fill:none;stroke:#000000;stroke-width:0.03336198;stroke-miterlimit:10" />
      <path
         id="path1031"
         stroke-miterlimit="10"
         d="m 453.21416,544.98641 -0.28024,0.28024"
         inkscape:connector-curvature="0"
         style="fill:none;stroke:#231f20;stroke-width:0.03336198;stroke-miterlimit:10" />
      <path
         id="path1033"
         stroke-miterlimit="10"
         d="m 452.84051,545.36006 0.0467,-0.14179 0.0951,0.0951 z"
         inkscape:connector-curvature="0"
         style="fill:#231f20;stroke:#231f20;stroke-width:0.03336198;stroke-miterlimit:10" />
      <path
         id="path1035"
         stroke-miterlimit="10"
         d="m 454.1483,544.98641 0.28024,0.28024"
         inkscape:connector-curvature="0"
         style="fill:none;stroke:#000000;stroke-width:0.03336198;stroke-miterlimit:10" />
      <path
         id="path1037"
         stroke-miterlimit="10"
         d="m 454.52195,545.36006 -0.14179,-0.0467 0.0951,-0.0951 z"
         inkscape:connector-curvature="0"
         style="stroke:#000000;stroke-width:0.03336198;stroke-miterlimit:10" />
      <path
         id="path1039"
         stroke-miterlimit="10"
         d="m 455.48278,546.32089 0.28024,0.28024"
         inkscape:connector-curvature="0"
         style="fill:none;stroke:#000000;stroke-width:0.03336198;stroke-miterlimit:10" />
      <path
         id="path1041"
         stroke-miterlimit="10"
         d="m 455.85643,546.69454 -0.14179,-0.0467 0.0951,-0.0951 z"
         inkscape:connector-curvature="0"
         style="stroke:#000000;stroke-width:0.03336198;stroke-miterlimit:10" />
      <path
         id="path1043"
         stroke-miterlimit="10"
         d="m 455.88312,547.65537 -0.28024,0.28024"
         inkscape:connector-curvature="0"
         style="fill:none;stroke:#000000;stroke-width:0.03336198;stroke-miterlimit:10" />
      <path
         id="path1045"
         stroke-miterlimit="10"
         d="m 455.50947,548.02902 0.0467,-0.14179 0.0951,0.0951 z"
         inkscape:connector-curvature="0"
         style="stroke:#000000;stroke-width:0.03336198;stroke-miterlimit:10" />
      <path
         id="path1047"
         stroke-miterlimit="10"
         d="m 456.81726,547.65537 0.26522,0.2769"
         inkscape:connector-curvature="0"
         style="fill:none;stroke:#000000;stroke-width:0.03336198;stroke-miterlimit:10" />
      <path
         id="path1049"
         stroke-miterlimit="10"
         d="m 457.1759,548.02902 -0.14012,-0.05 0.0967,-0.0917 z"
         inkscape:connector-curvature="0"
         style="stroke:#000000;stroke-width:0.03336198;stroke-miterlimit:10" />
      <path
         id="path1051"
         stroke-miterlimit="10"
         d="M 453.01733,546.49437"
         inkscape:connector-curvature="0"
         style="fill:none;stroke:#231f20;stroke-width:0.03336198;stroke-miterlimit:10" />
      <path
         id="path1053"
         stroke-miterlimit="10"
         d="M 452.81382,546.32089"
         inkscape:connector-curvature="0"
         style="fill:none;stroke:#231f20;stroke-width:0.03336198;stroke-miterlimit:10" />
      <circle
         id="circle1055"
         r="0.66723961"
         cy="544.51935"
         cx="453.68124"
         style="fill:#047391;fill-opacity:1;stroke:#231f20;stroke-width:0.05004297" />
      <path
         style="stroke-width:0.01668099"
         id="path1057"
         d="m 452.48354,545.97726 v 0.04 h -0.25856 v -0.04 h 0.10843 v -0.28358 h -0.0817 v -0.0317 l 0.0534,-0.0117 0.04,-0.0167 h 0.0367 v 0.34196 z"
         inkscape:connector-curvature="0" />
      <path
         style="stroke-width:0.01668099"
         id="path1059"
         d="m 453.54445,547.32175 0.0867,-0.0784 a 0.88409247,0.88409247 0 0 0 0.0634,-0.0634 0.28691303,0.28691303 0 0 0 0.0384,-0.0551 0.10509024,0.10509024 0 0 0 0.0134,-0.05 0.07506446,0.07506446 0 0 0 -0.02,-0.0534 0.08507305,0.08507305 0 0 0 -0.0634,-0.0217 0.09841784,0.09841784 0 0 0 -0.05,0.0133 0.19516758,0.19516758 0 0 0 -0.0417,0.0334 l -0.0284,-0.0284 a 0.22852956,0.22852956 0 0 1 0.055,-0.0417 0.14679271,0.14679271 0 0 1 0.0701,-0.0167 0.15680131,0.15680131 0 0 1 0.0517,0.008 0.11343073,0.11343073 0 0 1 0.04,0.0233 0.09841784,0.09841784 0 0 1 0.025,0.035 0.12010313,0.12010313 0 0 1 0.008,0.0467 0.12677552,0.12677552 0 0 1 -0.0133,0.055 0.28691303,0.28691303 0 0 1 -0.0367,0.0567 0.67724819,0.67724819 0 0 1 -0.055,0.06 l -0.0717,0.0667 h 0.19684 v 0.0434 h -0.26856 z"
         inkscape:connector-curvature="0" />
      <path
         style="stroke-width:0.01668099"
         id="path1061"
         d="m 457.54788,548.60785 a 0.20183998,0.20183998 0 0 0 0.0467,0.0317 0.13678412,0.13678412 0 0 0 0.0634,0.0133 0.12510742,0.12510742 0 0 0 0.0367,-0.005 0.09674974,0.09674974 0 0 0 0.0283,-0.0133 0.06505586,0.06505586 0 0 0 0.02,-0.0217 0.06171966,0.06171966 0 0 0 0.007,-0.0284 0.06171966,0.06171966 0 0 0 -0.0317,-0.0551 0.13678412,0.13678412 0 0 0 -0.0434,-0.015 0.3269474,0.3269474 0 0 0 -0.0651,-0.005 v -0.0384 a 0.26522774,0.26522774 0 0 0 0.0584,-0.005 0.12177123,0.12177123 0 0 0 0.0384,-0.015 0.06005156,0.06005156 0 0 0 0.0217,-0.0234 0.06005156,0.06005156 0 0 0 0.007,-0.0284 0.05337917,0.05337917 0 0 0 -0.0217,-0.045 0.09174545,0.09174545 0 0 0 -0.0567,-0.0167 0.12343933,0.12343933 0 0 0 -0.0517,0.01 0.1634737,0.1634737 0 0 0 -0.0434,0.0284 l -0.0267,-0.0317 a 0.21351667,0.21351667 0 0 1 0.055,-0.035 0.1668099,0.1668099 0 0 1 0.0684,-0.0133 0.18182279,0.18182279 0 0 1 0.05,0.007 0.13011172,0.13011172 0 0 1 0.04,0.0183 0.08840925,0.08840925 0 0 1 0.0267,0.03 0.08674115,0.08674115 0 0 1 0.01,0.0417 0.07673255,0.07673255 0 0 1 -0.0233,0.0567 0.15179701,0.15179701 0 0 1 -0.0584,0.035 v 0 l 0.0367,0.0117 a 0.11843503,0.11843503 0 0 1 0.03,0.02 0.09174545,0.09174545 0 0 1 0.02,0.0283 0.08507305,0.08507305 0 0 1 0.008,0.0367 0.09674974,0.09674974 0 0 1 -0.01,0.045 0.10175404,0.10175404 0 0 1 -0.03,0.035 0.14012032,0.14012032 0 0 1 -0.0434,0.0217 0.21018047,0.21018047 0 0 1 -0.13678,-0.008 0.20350808,0.20350808 0 0 1 -0.055,-0.0367 z"
         inkscape:connector-curvature="0" />
      <path
         id="path1063"
         d="M 454.1483,544.98641"
         inkscape:connector-curvature="0"
         style="fill:none;stroke:#cc0000;stroke-width:0.05004297" />
      <path
         id="path1065"
         d="M 453.21416,544.01558"
         inkscape:connector-curvature="0"
         style="fill:none;stroke:#cc0000;stroke-width:0.05004297" />
      <path
         id="path1067"
         d="M 454.1483,544.04226"
         inkscape:connector-curvature="0"
         style="fill:none;stroke:#cc0000;stroke-width:0.05004297" />
      <path
         id="path1069"
         d="M 453.21416,544.98641"
         inkscape:connector-curvature="0"
         style="fill:none;stroke:#cc0000;stroke-width:0.05004297" />
      <circle
         id="circle1071"
         r="0.66723961"
         cy="549.85724"
         cx="453.68124"
         style="fill:#ab10d2;fill-opacity:1;stroke:#000000;stroke-width:0.05004297" />
      <circle
         id="circle1073"
         r="0.66723961"
         cy="549.85724"
         cx="456.35019"
         style="fill:#ab10d2;fill-opacity:1;stroke:#000000;stroke-width:0.05004297" />
      <path
         id="path1075"
         stroke-miterlimit="10"
         d="m 454.55698,549.00653 -0.28024,0.28024"
         inkscape:connector-curvature="0"
         style="fill:none;stroke:#000000;stroke-width:0.03336198;stroke-miterlimit:10" />
      <path
         id="path1077"
         stroke-miterlimit="10"
         d="m 454.18333,549.38018 0.0467,-0.14179 0.0951,0.0951 z"
         inkscape:connector-curvature="0"
         style="stroke:#000000;stroke-width:0.03336198;stroke-miterlimit:10" />
      <path
         id="path1079"
         stroke-miterlimit="10"
         d="m 455.49112,549.00653 0.26523,0.2769"
         inkscape:connector-curvature="0"
         style="fill:none;stroke:#000000;stroke-width:0.03336198;stroke-miterlimit:10" />
      <path
         id="path1081"
         stroke-miterlimit="10"
         d="m 455.84976,549.38018 -0.14012,-0.05 0.0968,-0.0918 z"
         inkscape:connector-curvature="0"
         style="stroke:#000000;stroke-width:0.03336198;stroke-miterlimit:10" />
      <path
         style="stroke-width:0.01668099"
         id="path1083"
         d="m 456.22842,549.944 0.02,0.0167 0.0234,0.0133 0.0284,0.01 0.035,0.003 a 0.11343073,0.11343073 0 0 0 0.0384,-0.007 0.09674974,0.09674974 0 0 0 0.0317,-0.0183 0.08173685,0.08173685 0 0 0 0.02,-0.0284 0.08507305,0.08507305 0 0 0 0.008,-0.0367 0.07840065,0.07840065 0 0 0 -0.025,-0.0617 0.10175404,0.10175404 0 0 0 -0.0684,-0.0217 0.12177123,0.12177123 0 0 0 -0.04,0.007 l -0.0367,0.0167 -0.0267,-0.0167 0.0133,-0.18516 h 0.21686 v 0.0434 h -0.17515 l -0.01,0.11343 0.0334,-0.0117 0.0384,-0.005 a 0.17848659,0.17848659 0 0 1 0.0517,0.007 0.11676693,0.11676693 0 0 1 0.0417,0.0217 0.10342214,0.10342214 0 0 1 0.0284,0.0367 0.13011172,0.13011172 0 0 1 0.01,0.0534 0.12510742,0.12510742 0 0 1 -0.0117,0.055 0.12177123,0.12177123 0 0 1 -0.0317,0.04 0.14178842,0.14178842 0 0 1 -0.045,0.025 0.1634737,0.1634737 0 0 1 -0.0534,0.008 0.22018907,0.22018907 0 0 1 -0.0467,-0.005 l -0.0367,-0.0117 -0.03,-0.0167 -0.025,-0.02 z"
         inkscape:connector-curvature="0" />
      <path
         style="stroke-width:0.01668099"
         id="path1085"
         d="m 453.82802,549.91564 h -0.06 v 0.10509 h -0.0467 v -0.10509 h -0.19683 v -0.0334 l 0.19183,-0.24521 h 0.0534 v 0.23854 h 0.0601 z m -0.10676,-0.04 v -0.15347 q 0,-0.0183 0.002,-0.0334 h -0.003 l -0.02,0.0284 -0.02,0.0284 -0.10342,0.13011 z"
         inkscape:connector-curvature="0" />
      <path
         id="path1087"
         stroke-miterlimit="10"
         d="m 454.49359,546.28085 -0.28024,0.28024"
         inkscape:connector-curvature="0"
         style="fill:none;stroke:#000000;stroke-width:0.03336198;stroke-miterlimit:10" />
      <path
         id="path1089"
         stroke-miterlimit="10"
         d="m 454.11994,546.65618 0.0467,-0.14179 0.0951,0.0951 z"
         inkscape:connector-curvature="0"
         style="stroke:#000000;stroke-width:0.03336198;stroke-miterlimit:10" />
    </g>
    <g
       id="g1320"
       transform="matrix(0.00683869,0,0,0.00683869,439.30567,547.067)">
      <path
         id="path1302"
         d="M 361.453,485.937 C 162.329,485.937 0.906,377.828 0.906,244.469 0.906,111.109 162.329,3 361.453,3 560.578,3 722,111.109 722,244.469 722,377.828 560.578,485.937 361.453,485.937 Z M 416.641,97.406 c -151.352,0 -274.047,73.908 -274.047,165.078 0,91.17 122.695,165.078 274.047,165.078 151.351,0 263.046,-50.529 263.046,-165.078 0,-114.513 -111.695,-165.078 -263.046,-165.078 z"
         inkscape:connector-curvature="0"
         style="fill:url(#gradientFill-1);fill-rule:evenodd" />
      <path
         id="path1304"
         d="m 550,377 c 0,0 21.822,6.585 34.5,13 4.399,2.226 12.01,6.668 17.5,12.5 5.378,5.712 8,11.5 8,11.5 L 696,559 557,559.062 492,437 c 0,0 -13.31,-22.869 -21.5,-29.5 -6.832,-5.531 -9.745,-7.5 -16.5,-7.5 -4.702,0 -33.026,0 -33.026,0 L 421,558.974 298,559.026 V 152.938 h 247 c 0,0 112.5,2.029 112.5,109.062 0,107.033 -107.5,115 -107.5,115 z m -53.5,-135.976 -74.463,-0.048 -0.037,69.05 74.5,-0.024 c 0,0 34.5,-0.107 34.5,-35.125 0,-35.722 -34.5,-33.853 -34.5,-33.853 z"
         inkscape:connector-curvature="0"
         style="fill:url(#gradientFill-2);fill-rule:evenodd" />
    </g>
    <g
       id="layer1"
       transform="matrix(0.01765184,0,0,0.01765184,438.80841,542.75492)">
      <g
         id="g1510"
         transform="translate(688.05604,-395.96831)">
        <path
           inkscape:connector-curvature="0"
           d="m 504.1481,481.60364 c 0,-16.35902 4.38642,-25.259 28.60708,-29.49709 16.44378,-2.8819 37.52826,-3.24213 57.19298,0 15.53259,2.56405 28.60708,14.13402 28.60708,29.49709 v 53.97203 c 0,15.82926 -12.69307,28.7978 -28.60708,28.7978 h -57.19298 c -19.41043,0 -35.76945,16.54972 -35.76945,35.26088 v 25.8947 h -19.66472 c -16.63449,0 -26.31852,-11.99377 -30.38708,-28.7766 -5.48832,-22.54662 -5.25523,-35.98135 0,-57.57441 4.55594,-18.83829 19.11377,-28.77661 35.74826,-28.77661 h 21.46591 57.21416 v -7.20474 H 504.1481 Z"
           style="fill:url(#linearGradient1872);fill-opacity:1;stroke-width:1.20085096"
           id="path1948" />
        <path
           inkscape:connector-curvature="0"
           d="m 618.55524,654.32685 c 0,16.35901 -14.19759,24.64448 -28.60708,28.77661 -21.67781,6.22999 -39.07515,5.27642 -57.19298,0 -15.12997,-4.40761 -28.60708,-13.41355 -28.60708,-28.77661 v -53.97203 c 0,-15.53259 12.94735,-28.7978 28.60708,-28.7978 h 57.19298 c 19.0502,0 35.76945,-16.46496 35.76945,-35.98135 v -25.17424 h 21.44472 c 16.65567,0 24.49614,12.37522 28.60708,28.77661 5.72142,22.77971 5.9757,39.81682 0,57.57441 -5.78499,17.24901 -11.97259,28.7766 -28.60708,28.7766 h -28.60709 -57.19298 v 7.20475 h 57.19298 z"
           style="fill:url(#linearGradient1874);fill-opacity:1;stroke-width:1.20085096"
           id="path1950" />
        <g
           transform="matrix(0.6561,0,0,0.6561,-24.097769,226.97207)"
           id="g1499">
          <path
             id="path46"
             style="fill:#646464;fill-opacity:1;stroke-width:1.20085096"
             d="m 758.22594,514.3586 c 0,-17.48697 -4.98624,-26.46456 -14.95873,-26.95616 -3.96794,-0.18727 -7.84222,0.44479 -11.61118,1.90789 -3.00813,1.07684 -5.03305,2.14197 -6.09819,3.21882 v 41.73932 c 6.37911,4.00304 12.04424,5.86411 16.98367,5.57149 10.45239,-0.69058 15.68443,-9.17657 15.68443,-25.48136 z m 12.30175,0.7257 c 0,8.88395 -2.08345,16.25797 -6.27377,22.12208 -4.67022,6.63662 -11.14298,10.05442 -19.41827,10.24171 -6.23866,0.19898 -12.66459,-1.75573 -19.27781,-5.85241 v 37.93527 l -10.69819,-3.81577 v -84.20435 c 1.75571,-2.15369 4.01474,-4.00304 6.75367,-5.57149 6.36741,-3.71042 14.10428,-5.6183 23.21062,-5.71194 l 0.15216,0.15216 c 8.32212,-0.10534 14.73635,3.31246 19.2427,10.2417 4.20202,6.35571 6.30889,14.50225 6.30889,24.46304 z"
             inkscape:connector-curvature="0" />
          <path
             id="path48"
             style="fill:#646464;fill-opacity:1;stroke-width:1.20085096"
             d="m 835.91071,539.98042 c 0,11.91549 -1.19388,20.16737 -3.58166,24.75566 -2.39949,4.58828 -6.96436,8.25189 -13.70633,10.9791 -5.46614,2.15368 -11.37707,3.32416 -17.72107,3.52314 l -1.76742,-6.74196 c 6.44934,-0.87786 10.99081,-1.75573 13.62439,-2.63358 5.18522,-1.75572 8.74349,-4.44782 10.69819,-8.05291 1.56844,-2.93791 2.34096,-8.5445 2.34096,-16.84321 v -2.78574 c -7.3155,3.32417 -14.98215,4.97454 -22.99994,4.97454 -5.26716,0 -9.91397,-1.65037 -13.91701,-4.97454 -4.49465,-3.61678 -6.74197,-8.20507 -6.74197,-13.76485 V 483.891 l 10.69819,-3.6636 v 44.81769 c 0,4.78726 1.54504,8.47428 4.6351,11.06104 3.09007,2.58676 7.09312,3.82747 11.99743,3.73383 4.90431,-0.10534 10.15976,-2.00152 15.74295,-5.71194 v -52.28536 h 10.69819 z"
             inkscape:connector-curvature="0" />
          <path
             id="path50"
             style="fill:#646464;fill-opacity:1;stroke-width:1.20085096"
             d="m 877.67345,546.86284 c -1.27582,0.10531 -2.4463,0.15216 -3.52314,0.15216 -6.05139,0 -10.76841,-1.43969 -14.13941,-4.33077 -3.35927,-2.89109 -5.04476,-6.88243 -5.04476,-11.97402 v -42.13729 h -7.32721 v -6.73026 h 7.32721 v -17.87323 l 10.68648,-3.80406 v 21.67729 h 12.02083 v 6.73026 h -12.02083 v 41.84467 c 0,4.01475 1.07684,6.85902 3.23053,8.5211 1.84936,1.36946 4.78726,2.15368 8.7903,2.35266 z"
             inkscape:connector-curvature="0" />
          <path
             id="path52"
             style="fill:#646464;fill-opacity:1;stroke-width:1.20085096"
             d="m 942.44783,545.98498 h -10.69818 v -41.29454 c 0,-4.20203 -0.98321,-7.81881 -2.93791,-10.83865 -2.25903,-3.4178 -5.39592,-5.12671 -9.42237,-5.12671 -4.90431,0 -11.03763,2.58677 -18.39994,7.76029 v 49.49961 h -10.6982 v -98.7066 l 10.6982,-3.37098 v 44.95814 c 6.8356,-4.97454 14.30326,-7.46766 22.41469,-7.46766 5.66512,0 10.2534,1.90788 13.76485,5.71194 3.52314,3.80406 5.27886,8.54451 5.27886,14.20963 z"
             inkscape:connector-curvature="0" />
          <path
             id="path54"
             style="fill:#646464;fill-opacity:1;stroke-width:1.20085096"
             d="m 999.30976,512.67311 c 0,-6.71856 -1.27582,-12.26663 -3.81576,-16.65593 -3.01984,-5.3491 -7.71346,-8.16995 -14.05748,-8.46258 -11.7282,0.67888 -17.5806,9.08293 -17.5806,25.18874 0,7.38573 1.21729,13.55416 3.6753,18.50529 3.13689,6.30889 7.84222,9.42237 14.11599,9.31703 11.77503,-0.0937 17.66255,-9.38726 17.66255,-27.89255 z m 11.71654,0.0702 c 0,9.56282 -2.4463,17.52209 -7.3272,23.8778 -5.37253,7.11652 -12.79338,10.68648 -22.26258,10.68648 -9.38724,0 -16.70274,-3.56996 -21.98161,-10.68648 -4.78726,-6.35571 -7.17505,-14.31498 -7.17505,-23.8778 0,-8.98929 2.58677,-16.55059 7.76029,-22.70732 5.46615,-6.53128 12.65289,-9.80862 21.53684,-9.80862 8.88394,0 16.11751,3.27734 21.68901,9.80862 5.1735,6.15673 7.7603,13.71803 7.7603,22.70732 z"
             inkscape:connector-curvature="0" />
          <path
             id="path56"
             style="fill:#646464;fill-opacity:1;stroke-width:1.20085096"
             d="m 1072.3594,545.98498 h -10.6982 v -43.6355 c 0,-4.78727 -1.4396,-8.5211 -4.319,-11.21321 -2.8794,-2.6804 -6.7186,-3.97963 -11.5058,-3.87429 -5.0799,0.0937 -9.914,1.75573 -14.5023,4.97455 v 53.74845 h -10.6982 v -55.0711 c 6.1567,-4.48294 11.8219,-7.40914 16.9954,-8.7786 4.8809,-1.27582 9.1883,-1.90788 12.8987,-1.90788 2.5399,0 4.9277,0.2458 7.175,0.7374 4.2021,0.9715 7.6199,2.77404 10.2534,5.41932 2.9379,2.92621 4.401,6.43765 4.401,10.54603 z"
             inkscape:connector-curvature="0" />
        </g>
      </g>
    </g>
  </g>
</svg>
