<?xml version="1.0" encoding="UTF-8" standalone="no"?>
<svg
   xmlns:dc="http://purl.org/dc/elements/1.1/"
   xmlns:cc="http://creativecommons.org/ns#"
   xmlns:rdf="http://www.w3.org/1999/02/22-rdf-syntax-ns#"
   xmlns:svg="http://www.w3.org/2000/svg"
   xmlns="http://www.w3.org/2000/svg"
   xmlns:sodipodi="http://sodipodi.sourceforge.net/DTD/sodipodi-0.dtd"
   xmlns:inkscape="http://www.inkscape.org/namespaces/inkscape"
   viewBox="0 0 32 8"
   version="1.1"
   id="svg15"
   sodipodi:docname="main.svg"
   width="32pc"
   height="8pc"
   inkscape:version="0.92.2 (5c3e80d, 2017-08-06)">
  <metadata
     id="metadata19">
    <rdf:RDF>
      <cc:Work
         rdf:about="">
        <dc:format>image/svg+xml</dc:format>
        <dc:type
           rdf:resource="http://purl.org/dc/dcmitype/StillImage" />
        <dc:title />
      </cc:Work>
    </rdf:RDF>
  </metadata>
  <sodipodi:namedview
     pagecolor="#ffffff"
     bordercolor="#666666"
     borderopacity="1"
     objecttolerance="10"
     gridtolerance="10"
     guidetolerance="10"
     inkscape:pageopacity="0"
     inkscape:pageshadow="2"
     inkscape:window-width="1920"
     inkscape:window-height="1057"
     id="namedview17"
     showgrid="false"
     inkscape:document-units="pc"
     units="pc"
     inkscape:zoom="5.2149125"
     inkscape:cx="254.16957"
     inkscape:cy="29.774124"
     inkscape:window-x="-8"
     inkscape:window-y="-8"
     inkscape:window-maximized="1"
     inkscape:current-layer="g13" />
  <defs
     id="defs7">
    <linearGradient
       id="0"
       x1="451.69"
       y1="556.78998"
       x2="451.34"
       y2="528.78998"
       gradientUnits="userSpaceOnUse"
       gradientTransform="translate(-20.158536,-10.28301)">
      <stop
         stop-color="#8798a9"
         id="stop2" />
      <stop
         offset="1"
         stop-color="#aeb6be"
         id="stop4" />
    </linearGradient>
    <marker
       style="overflow:visible"
       id="TriangleOutS"
       orient="auto"
       refY="0"
       refX="0">
      <path
         inkscape:connector-curvature="0"
         style="fill-rule:evenodd;stroke:#000000;stroke-width:1.00000003pt;marker-start:none"
         id="path3322"
         transform="scale(0.2)"
         d="M 5.77,0 -2.88,5 V -5 Z" />
    </marker>
    <marker
       style="overflow:visible"
       id="marker1068"
       orient="auto"
       refY="0"
       refX="0">
      <path
         inkscape:connector-curvature="0"
         style="fill-rule:evenodd;stroke:#000000;stroke-width:1.00000003pt;marker-start:none"
         id="path1066"
         transform="scale(0.2)"
         d="M 5.77,0 -2.88,5 V -5 Z" />
    </marker>
    <marker
       style="overflow:visible"
       id="marker1072"
       orient="auto"
       refY="0"
       refX="0">
      <path
         inkscape:connector-curvature="0"
         style="fill-rule:evenodd;stroke:#000000;stroke-width:1.00000003pt;marker-start:none"
         id="path1070"
         transform="scale(0.2)"
         d="M 5.77,0 -2.88,5 V -5 Z" />
    </marker>
    <marker
       style="overflow:visible"
       id="marker1076"
       orient="auto"
       refY="0"
       refX="0">
      <path
         inkscape:connector-curvature="0"
         style="fill-rule:evenodd;stroke:#000000;stroke-width:1.00000003pt;marker-start:none"
         id="path1074"
         transform="scale(0.2)"
         d="M 5.77,0 -2.88,5 V -5 Z" />
    </marker>
    <marker
       style="overflow:visible"
       id="marker1080"
       orient="auto"
       refY="0"
       refX="0">
      <path
         inkscape:connector-curvature="0"
         style="fill-rule:evenodd;stroke:#000000;stroke-width:1.00000003pt;marker-start:none"
         id="path1078"
         transform="scale(0.2)"
         d="M 5.77,0 -2.88,5 V -5 Z" />
    </marker>
    <marker
       style="overflow:visible"
       id="marker1084"
       orient="auto"
       refY="0"
       refX="0">
      <path
         inkscape:connector-curvature="0"
         style="fill-rule:evenodd;stroke:#000000;stroke-width:1.00000003pt;marker-start:none"
         id="path1082"
         transform="scale(0.2)"
         d="M 5.77,0 -2.88,5 V -5 Z" />
    </marker>
    <marker
       style="overflow:visible"
       id="marker1088"
       orient="auto"
       refY="0"
       refX="0">
      <path
         inkscape:connector-curvature="0"
         style="fill-rule:evenodd;stroke:#000000;stroke-width:1.00000003pt;marker-start:none"
         id="path1086"
         transform="scale(0.2)"
         d="M 5.77,0 -2.88,5 V -5 Z" />
    </marker>
    <marker
       style="overflow:visible"
       id="marker1092"
       orient="auto"
       refY="0"
       refX="0">
      <path
         inkscape:connector-curvature="0"
         style="fill-rule:evenodd;stroke:#000000;stroke-width:1.00000003pt;marker-start:none"
         id="path1090"
         transform="scale(0.2)"
         d="M 5.77,0 -2.88,5 V -5 Z" />
    </marker>
    <marker
       style="overflow:visible"
       id="marker1096"
       orient="auto"
       refY="0"
       refX="0">
      <path
         inkscape:connector-curvature="0"
         style="fill-rule:evenodd;stroke:#000000;stroke-width:1.00000003pt;marker-start:none"
         id="path1094"
         transform="scale(0.2)"
         d="M 5.77,0 -2.88,5 V -5 Z" />
    </marker>
    <marker
       style="overflow:visible"
       id="marker1100"
       orient="auto"
       refY="0"
       refX="0">
      <path
         inkscape:connector-curvature="0"
         style="fill-rule:evenodd;stroke:#000000;stroke-width:1.00000003pt;marker-start:none"
         id="path1098"
         transform="scale(0.2)"
         d="M 5.77,0 -2.88,5 V -5 Z" />
    </marker>
  </defs>
  <g
     transform="translate(-435.34,-543.29)"
     id="g13"
     style="stroke:#1f2a47">
    <g
       id="g1025"
       transform="translate(-0.88135593,-0.20338983)">
      <path
         inkscape:connector-curvature="0"
         id="path1013"
         d="m 452.74444,546.70235 c -0.0115,0.057 -0.0219,0.11444 -0.0308,0.17238 -0.009,0.058 -0.0164,0.11637 -0.0222,0.17524 -0.0121,0.11766 -0.018,0.23706 -0.018,0.35787 0,0.12086 0.006,0.24025 0.018,0.35789 0.004,0.0589 0.0133,0.11727 0.0222,0.17522 0.009,0.058 0.0191,0.11542 0.0308,0.17238 0.0117,0.057 0.0247,0.11344 0.0392,0.16935 0.0289,0.11183 0.0629,0.22158 0.10219,0.32878 0.0196,0.0537 0.0406,0.10659 0.0627,0.15895 0.022,0.0522 0.0455,0.10406 0.0701,0.15507 0.0122,0.0254 0.0249,0.0509 0.0378,0.076 0.0257,0.0503 0.0528,0.0999 0.0807,0.1488 0.0843,0.1466 0.17893,0.28653 0.28288,0.41881 0.0519,0.0661 0.10626,0.13034 0.16275,0.19251 0.0377,0.0414 0.0763,0.082 0.11592,0.12158 0.0396,0.0396 0.0801,0.0782 0.12156,0.11592 0.18651,0.16951 0.39137,0.3191 0.61128,0.44561 0.0488,0.0282 0.0985,0.055 0.1488,0.0807 0.10065,0.0516 0.20409,0.0985 0.31008,0.14016 0.0529,0.021 0.10659,0.0406 0.16085,0.0589 0.35242,0.11926 0.73005,0.18388 1.12271,0.18388 0.26774,0 0.52845,-0.0301 0.77892,-0.087 0.11692,-0.0265 0.23168,-0.0589 0.34381,-0.0968 0.0542,-0.0184 0.1078,-0.0381 0.16083,-0.0589 0.10604,-0.0418 0.20948,-0.0887 0.31007,-0.14018 0.0503,-0.0256 0.1,-0.0528 0.14879,-0.0807 0.21993,-0.12644 0.4248,-0.27612 0.61129,-0.4456 0.0415,-0.0377 0.082,-0.0763 0.12157,-0.11593 0.0396,-0.0396 0.0782,-0.0801 0.11593,-0.12157 0.0565,-0.062 0.11086,-0.12638 0.16276,-0.19251 0.0823,-0.10461 0.1584,-0.21414 0.22847,-0.32784 0.0184,-0.0301 0.0366,-0.0603 0.0543,-0.091 0.0282,-0.0488 0.055,-0.0985 0.0807,-0.14879 0.0129,-0.0252 0.0254,-0.0505 0.0378,-0.076 0.0245,-0.0509 0.0481,-0.10274 0.0701,-0.15507 0.0221,-0.0523 0.043,-0.10538 0.0627,-0.15897 0.0393,-0.10725 0.0735,-0.21693 0.10219,-0.32877 0.0143,-0.0559 0.0275,-0.1124 0.0392,-0.16935 0.0117,-0.0569 0.0219,-0.11445 0.0308,-0.1724 0.009,-0.058 0.0163,-0.11633 0.0222,-0.1752 0.012,-0.11766 0.0181,-0.23706 0.0181,-0.35788 0,-0.12084 -0.005,-0.24025 -0.0181,-0.35789 -0.005,-0.0589 -0.0134,-0.11726 -0.0222,-0.17521 -0.009,-0.058 -0.0191,-0.11543 -0.0308,-0.17241 -0.0117,-0.0569 -0.0247,-0.11344 -0.0392,-0.16932 -0.0289,-0.11184 -0.0629,-0.22158 -0.10219,-0.32876 -0.01,-0.0269 -0.0199,-0.0535 -0.0304,-0.08 -0.0314,-0.0795 -0.0654,-0.15755 -0.10241,-0.23407 -0.0122,-0.0254 -0.0249,-0.0509 -0.0378,-0.076 -0.0257,-0.0503 -0.0528,-0.1 -0.0807,-0.14877 -0.0843,-0.14663 -0.17893,-0.28654 -0.28288,-0.41883 -0.052,-0.0661 -0.10626,-0.13031 -0.16278,-0.19251 -0.0377,-0.0414 -0.0762,-0.082 -0.1159,-0.12157 -0.0396,-0.0397 -0.0801,-0.0782 -0.12156,-0.11592 -0.0803,-0.0729 -0.16404,-0.14215 -0.25086,-0.20748 -0.11488,-0.0864 -0.23519,-0.16609 -0.36044,-0.23812 -0.0488,-0.0282 -0.0984,-0.055 -0.14878,-0.0807 -0.0229,-0.0118 -0.0459,-0.0231 -0.0691,-0.0343 -0.0277,-0.0133 -0.0558,-0.0266 -0.0839,-0.0394 -0.0119,-0.005 -0.0236,-0.01 -0.0355,-0.0156 -0.0401,-0.0176 -0.0806,-0.0348 -0.12148,-0.0509 -5.5e-4,-2.4e-4 -0.002,-4.1e-4 -0.003,-5.8e-4 -0.0437,-0.0173 -0.0877,-0.0332 -0.1322,-0.0487 -0.009,-0.005 -0.0178,-0.005 -0.0271,-0.01 -0.10362,-0.0351 -0.20948,-0.0655 -0.31729,-0.0906 -0.0335,-0.008 -0.0674,-0.0156 -0.10153,-0.0224 -0.0244,-0.006 -0.0492,-0.01 -0.0739,-0.0141 -0.18414,-0.0334 -0.37328,-0.0524 -0.56627,-0.0559 -0.0212,-3.7e-4 -0.0425,-5.8e-4 -0.0639,-5.8e-4 -0.0363,0 -0.0725,5.8e-4 -0.10846,0.003 -0.35382,0.011 -0.69448,0.0739 -1.01432,0.18211 -0.0541,0.0184 -0.10791,0.0379 -0.16084,0.0589 -0.0164,0.005 -0.0324,0.0133 -0.0488,0.0199 -0.0364,0.0148 -0.0726,0.0302 -0.10824,0.0465 -0.0517,0.0234 -0.10274,0.048 -0.15302,0.0737 -0.0503,0.0256 -0.0999,0.0528 -0.1488,0.0807 -0.19661,0.11306 -0.38113,0.24468 -0.55133,0.39237 -0.0201,0.0175 -0.0402,0.0352 -0.06,0.0531 -0.0415,0.0377 -0.082,0.0763 -0.12156,0.11593 -0.0396,0.0396 -0.0782,0.0801 -0.11591,0.12156 -0.0565,0.062 -0.11072,0.12636 -0.16276,0.1925 -0.10395,0.13226 -0.19857,0.27222 -0.28288,0.41884 -0.0282,0.0488 -0.055,0.0986 -0.0807,0.14877 -0.0129,0.0253 -0.0254,0.0505 -0.0378,0.076 -0.0369,0.0766 -0.0709,0.15459 -0.10241,0.23406 -0.01,0.0265 -0.0205,0.053 -0.0304,0.0799 -0.0393,0.10725 -0.0735,0.21691 -0.10219,0.32877 -0.0143,0.0559 -0.0272,0.11232 -0.0389,0.16927 z"
         style="fill:#047391;fill-opacity:1;stroke-width:0.05845851;stroke-miterlimit:4;stroke-dasharray:none" />
      <path
         inkscape:connector-curvature="0"
         id="path11"
         d="m 455.58071,544.14772 c 0.006,0.0117 0.0125,0.0251 0.0293,0.0301 0.0328,-0.0169 0.0654,0.002 0.10154,0 0.0352,-0.002 0.0665,-0.0174 0.10527,-0.0113 0.0685,0.011 0.16413,0.0777 0.21809,0.0412 0.0135,-0.009 0.01,-0.025 0.0227,-0.0488 0.01,-0.019 0.025,-0.04 0.0342,-0.0636 0.0272,-6e-4 0.0546,-0.002 0.082,-0.002 0.22639,0 0.44756,0.0229 0.66133,0.0663 -0.009,0.0236 -0.0384,0.0131 -0.063,0.0244 -0.0231,0.011 -0.0318,0.0329 -0.0564,0.0375 -0.0684,0.0129 -0.12509,-0.0173 -0.18427,-0.0149 -0.004,0.0255 0.0293,0.0405 0.0451,0.0487 0.0537,0.0282 0.0973,0.0243 0.17301,0.0226 0.0388,-6e-4 0.0834,0.0116 0.11661,-0.0113 0.0211,-0.0144 0.02,-0.0461 0.0377,-0.0638 0.007,-0.007 0.0185,-0.0149 0.031,-0.0213 0.0371,0.009 0.074,0.0184 0.11073,0.0282 -0.005,0.0253 -0.0471,0.0193 -0.0477,0.053 0.0262,0.0156 0.0869,-0.009 0.11047,-0.0353 0.009,0.004 0.0183,0.005 0.0272,0.008 0.0531,0.0163 0.10582,0.0335 0.15789,0.0522 0.0741,0.0267 0.14707,0.056 0.21879,0.0878 -0.0138,0.008 -0.0284,0.0185 -0.0406,0.0184 -0.0311,-2e-4 -0.0443,-0.0417 -0.079,-0.0263 -0.005,0.0402 0.0425,0.0565 0.0715,0.075 0.0312,0.0201 0.064,0.04 0.0752,0.0751 -0.0307,0.0648 -0.0794,-0.004 -0.12785,-0.004 -0.0534,-3.8e-4 -0.13127,0.10142 -0.17676,0.0188 0.0114,-0.0438 0.0596,-0.0506 0.0715,-0.0938 -0.01,0.003 -0.0204,0.004 -0.0304,0.009 -0.0178,0.007 -0.0354,0.0165 -0.0538,0.0263 -0.024,0.0129 -0.0491,0.0256 -0.0777,0.0321 -0.0263,0.005 -0.0517,0.004 -0.0752,0.0112 -0.0451,0.0132 -0.0765,0.0464 -0.12407,0.0638 -0.0185,0.005 -0.0408,0.005 -0.0602,0.0112 -0.0453,0.0152 -0.0999,0.0422 -0.14666,0.0676 -0.0479,0.0258 -0.10186,0.0529 -0.13162,0.0789 -0.0162,0.0139 -0.0579,0.0631 -0.0565,0.0788 0.003,0.0223 0.0441,0.0298 0.0451,0.0526 -0.002,0.0139 -0.0244,0.0437 -0.007,0.0638 0.0154,0.0184 0.0462,0.005 0.0789,0.007 0.0574,0.007 0.095,0.0546 0.13914,0.0789 0.0333,0.0184 0.0828,0.0403 0.12049,0.045 0.0517,0.005 0.10945,-0.015 0.11653,0.0263 0.005,0.0397 -0.0486,0.0539 -0.0526,0.0788 0.0277,0.0367 -0.0189,0.0541 -0.0188,0.0863 10e-6,0.0262 0.0321,0.0652 0.0601,0.0675 0.0379,0.006 0.0934,-0.0372 0.10912,-0.075 0.0187,-0.045 0.011,-0.10615 0.0451,-0.13892 0.17525,0.005 0.3235,-0.0795 0.31221,-0.25902 -0.002,-0.0177 -0.0112,-0.0406 -0.007,-0.0602 0.004,-0.0289 0.0556,-0.0534 0.0488,-0.0901 0.0189,-0.005 0.0301,-0.0211 0.0399,-0.0382 0.0144,-0.0256 0.0256,-0.0549 0.0524,-0.0646 0.003,-5.8e-4 0.005,-0.003 0.005,-0.004 0.0153,-0.006 0.0315,-4.2e-4 0.0483,0.005 0.03,0.009 0.0627,0.0242 0.0986,0.0218 0.0183,-0.002 0.0419,-0.0175 0.0602,-0.0148 0.0367,0.005 0.059,0.0503 0.0866,0.0713 0.0244,0.0186 0.0502,0.0127 0.0565,0.0375 -0.007,0.0417 -0.0362,0.0431 -0.034,0.0816 5e-5,4.1e-4 -3e-5,5.9e-4 -3e-5,0.002 0.005,0.0343 0.0387,0.0605 0.0565,0.0638 0.0274,0.005 0.0668,-0.01 0.094,-0.0226 0.0296,-0.014 0.0565,-0.044 0.0824,-0.0651 0.0368,0.0283 0.0731,0.0573 0.10879,0.0869 0.005,0.0166 0.007,0.0317 0.008,0.042 0.004,0.0405 -0.004,0.0717 -0.004,0.1089 0.004,0.0634 0.0847,0.0569 0.12406,0.0901 0.012,0.01 0.0165,0.0358 0.0262,0.0488 0.0192,0.0254 0.0421,0.0254 0.0451,0.0525 0.007,0.0648 -0.0589,0.0703 -0.0528,0.14268 -0.0136,0.0282 -0.0478,0.0263 -0.0451,0.0638 0.004,0.0592 0.0897,0.0139 0.11284,0.0601 0.0125,0.0249 -0.004,0.0433 -0.0113,0.0788 0.0291,0.0348 0.0289,0.0901 -0.0224,0.0902 -0.0312,0 -0.0399,-0.0334 -0.0716,-0.0412 -0.0176,-0.004 -0.0414,-0.004 -0.0639,-0.007 -0.0191,-0.004 -0.042,-0.009 -0.0601,-0.0113 -0.0464,-0.004 -0.0967,0.008 -0.12418,-0.0188 0.0448,-0.0594 0.10428,-0.11781 0.16177,-0.16892 0.0173,-0.0153 0.0539,-0.0256 0.0451,-0.0563 -0.0321,-0.0281 -0.0713,0.003 -0.10153,0.0188 -0.0317,0.0178 -0.0696,0.0436 -0.10538,0.0488 -0.0622,0.009 -0.14471,-0.0183 -0.19554,0.0149 -0.007,0.0284 0.058,0.0174 0.0488,0.0601 -0.0249,0.004 -0.0485,0.005 -0.0677,-0.0113 -0.0174,-0.0156 -0.007,-0.0394 -0.0188,-0.0487 -0.0192,-0.0159 -0.0917,-0.0202 -0.12414,-0.0149 -0.0395,0.005 -0.0745,0.03 -0.0789,0.0638 0.0475,0.0222 0.12573,-0.0229 0.14296,0.0339 -0.0261,0.0467 -0.0872,0.0725 -0.079,0.13507 0.005,0.0243 0.0321,0.0565 0.0528,0.0601 0.0208,0.005 0.0324,-0.0171 0.0526,-0.0151 0.0213,0.003 0.0164,0.0263 0.0414,0.0226 0.0361,-0.0155 0.0562,-0.0662 0.0977,-0.0638 0.0497,0.0603 -0.045,0.0897 -0.0977,0.1089 -0.0602,0.0218 -0.13847,0.0333 -0.18437,0.0526 -0.0241,0.01 -0.11502,0.0978 -0.12788,0.03 -0.009,-0.0489 0.0451,-0.0348 0.0565,-0.075 -0.0581,-0.0113 -0.11245,0.025 -0.16545,0.045 -0.0757,0.0285 -0.20373,0.0466 -0.22195,0.13138 -0.004,0.017 0.007,0.0486 -0.004,0.0601 -0.009,0.009 -0.0629,0.011 -0.0866,0.0188 -0.0362,0.0124 -0.0679,0.0389 -0.0903,0.045 -0.0169,0.006 -0.0419,0.006 -0.0526,0.007 -0.0299,0.0116 -0.0409,0.0519 -0.0752,0.0788 -0.0141,0.011 -0.0452,0.019 -0.0565,0.0301 -0.0195,0.0194 -0.022,0.0679 -0.0564,0.075 -0.0219,0.003 -0.0396,-0.0164 -0.0602,-0.004 -0.004,0.0478 0.0169,0.11305 -0.006,0.16146 -0.0444,0.0362 -0.0935,0.0619 -0.15042,0.0938 -0.0316,0.0178 -0.0597,0.0223 -0.0978,0.0414 -0.0271,0.0134 -0.0517,0.0454 -0.0827,0.0638 -0.0717,0.0421 -0.15851,0.0922 -0.15795,0.19899 1e-5,0.0231 0.0121,0.048 0.015,0.075 0.003,0.0159 -0.003,0.0315 0,0.0488 0.004,0.0393 0.033,0.0892 0,0.11633 -0.0506,-0.0208 -0.11503,-0.0277 -0.15043,-0.0638 -0.01,-0.0372 0.0196,-0.0676 0.0151,-0.10142 -0.004,-0.0272 -0.0418,-0.0754 -0.0639,-0.0789 -0.0228,-0.005 -0.044,0.0206 -0.0677,0.0188 -0.0282,-0.004 -0.0542,-0.0408 -0.0904,-0.045 -0.0529,-0.005 -0.0918,0.0121 -0.15043,0.005 -0.0567,0.0301 -0.0734,0.0842 -0.14283,0.0788 -0.0244,-0.003 -0.0469,-0.0205 -0.0752,-0.0263 -0.0308,-0.005 -0.0772,-0.0173 -0.10912,-0.0149 -0.0639,0.006 -0.11049,0.0503 -0.16545,0.0788 -0.0485,0.0253 -0.11722,0.0566 -0.13166,0.1089 -0.008,0.0283 -0.002,0.0678 -0.0113,0.0938 -0.005,0.0173 -0.0212,0.0324 -0.03,0.0486 -0.0421,0.0769 -0.0771,0.17856 -0.0451,0.28916 0.005,0.0164 0.0466,0.1089 0.0639,0.12764 0.0194,0.0208 0.0765,0.0519 0.10901,0.0525 0.0276,5.5e-4 0.0598,-0.0141 0.0866,-0.0188 0.0309,-0.004 0.0697,-0.004 0.0978,-0.0148 0.0814,-0.0261 0.0653,-0.1358 0.14667,-0.17276 0.0355,-0.0161 0.0767,-0.0193 0.13913,-0.0224 0.0199,0.0166 0.0291,0.046 0.0263,0.0713 -0.004,0.0192 -0.0204,0.0364 -0.03,0.0638 -0.009,0.024 -0.01,0.052 -0.0188,0.0714 -0.0112,0.0253 -0.0361,0.0438 -0.0451,0.0676 -0.004,0.0155 -0.004,0.0348 -0.007,0.0486 -0.009,0.0248 -0.0419,0.0421 -0.0263,0.0676 0.0806,0.032 0.17798,-0.009 0.24827,0.005 0.0296,0.004 0.0908,0.0407 0.0902,0.0864 -3.6e-4,0.0341 -0.0263,0.0565 -0.03,0.0938 -0.004,0.047 -0.0242,0.10461 -0.0262,0.14262 -0.005,0.0623 0.0916,0.16979 0.15796,0.16893 0.0716,-0.002 0.11322,-0.071 0.19937,-0.0337 0.0285,0.0124 0.0589,0.0586 0.0904,0.0563 0.0261,-0.003 0.0654,-0.0474 0.0827,-0.0789 0.0212,-0.0384 0.0227,-0.0707 0.0601,-0.0901 0.0405,-0.0209 0.0726,-0.011 0.12416,-0.0301 0.023,-0.009 0.0431,-0.0232 0.0638,-0.0376 0.0183,-0.0125 0.0374,-0.0452 0.0602,-0.0226 0.03,0.0299 -0.0367,0.0469 -0.0113,0.0789 0.0521,0.0276 0.0789,-0.0513 0.11664,-0.0525 0.012,-3.8e-4 0.0538,0.0234 0.0752,0.0375 0.0293,0.0191 0.0393,0.0462 0.0715,0.0525 0.0205,0.005 0.0538,-0.008 0.0827,-0.005 0.0384,0.005 0.0613,0.0384 0.0903,0.0375 0.0354,-0.002 0.0524,-0.0395 0.0827,-0.0451 0.0663,-0.0121 0.0911,0.007 0.12033,0.0488 0.0328,0.005 0.034,-0.0378 0.0638,-0.0224 -0.0164,0.0328 0.005,0.0476 0.0188,0.075 0.009,0.0175 0.007,0.03 0.0151,0.0376 0.0179,0.0172 0.0526,0.0172 0.0789,0.0337 0.0277,0.0174 0.0433,0.0499 0.0752,0.0864 0.0329,0.0372 0.0878,0.076 0.13163,0.0788 0.0414,0.005 0.075,-0.0117 0.10912,-0.007 0.0778,0.01 0.12617,0.0483 0.18059,0.0901 0.0304,0.0233 0.0579,0.0395 0.0676,0.0675 0.006,0.0196 0.006,0.0459 0.0113,0.0675 0.0166,0.0469 0.0849,0.0694 0.0602,0.15016 0.0113,0.0236 0.0366,0.0322 0.0639,0.0488 0.0218,0.0133 0.0403,0.0412 0.0638,0.045 0.0154,0.004 0.0319,-0.005 0.0451,-0.004 0.0428,0.004 0.072,0.0196 0.10912,0.0339 0.023,0.009 0.0524,0.0122 0.0678,0.0226 0.0191,0.0129 0.0216,0.0561 0.0451,0.0675 0.0154,0.007 0.0495,-0.005 0.0752,0 0.0404,0.005 0.0951,0.0293 0.13162,0.0301 0.0221,4.8e-4 0.0405,-0.009 0.0601,-0.007 0.0458,0.005 0.0815,0.0323 0.11695,0.0646 -0.45309,0.73044 -1.18206,1.2726 -2.04025,1.47976 -0.004,-0.0329 -0.0122,-0.066 -0.0139,-0.0989 -0.004,-0.0714 0.008,-0.12177 -0.004,-0.18771 -0.009,-0.0499 -0.0196,-0.12629 -0.0376,-0.15768 -0.0201,-0.0349 -0.0992,-0.0943 -0.13911,-0.11642 -0.0262,-0.0146 -0.0579,-0.0197 -0.0866,-0.0338 -0.0613,-0.0301 -0.17997,-0.0934 -0.20686,-0.15394 -0.008,-0.0174 -0.006,-0.0406 -0.0151,-0.0601 -0.0164,-0.0385 -0.0509,-0.0717 -0.0752,-0.1089 -0.0465,-0.0708 -0.0839,-0.15969 -0.13165,-0.23273 -0.0242,-0.0372 -0.0451,-0.0792 -0.0715,-0.10879 -0.0155,-0.0174 -0.0651,-0.0339 -0.0715,-0.0602 -0.009,-0.0348 -0.0342,-0.0824 -0.0301,-0.1089 0.005,-0.0359 0.0754,-0.0648 0.0752,-0.0976 -2e-5,-0.0278 -0.0373,-0.044 -0.0451,-0.0675 -0.019,-0.0574 0.0112,-0.0911 0.0338,-0.1389 0.007,-0.0156 0.0149,-0.041 0.0227,-0.0525 0.0138,-0.0206 0.0419,-0.0264 0.0601,-0.0488 0.01,-0.0125 0.0166,-0.0387 0.0301,-0.0564 0.0285,-0.038 0.0747,-0.0521 0.0866,-0.0864 0.01,-0.0278 0.0153,-0.16733 0.004,-0.21397 -0.006,-0.0271 -0.0317,-0.0494 -0.0414,-0.075 -0.0171,-0.0452 -0.021,-0.0948 -0.0678,-0.0938 -0.0289,6e-4 -0.0492,0.0325 -0.0678,0.0525 -0.005,0.0267 -0.004,0.0557 -0.0301,0.0638 -0.0428,0.0127 -0.0592,-0.045 -0.10901,-0.0601 -0.0199,-0.006 -0.0516,-0.006 -0.0639,-0.0113 -0.0365,-0.0164 -0.0482,-0.0695 -0.0866,-0.0902 -0.0322,-0.0173 -0.0596,-0.0112 -0.0789,-0.0375 -0.008,-0.0181 -0.003,-0.0509 -0.005,-0.075 -0.0412,-0.0242 -0.0762,-0.11386 -0.12415,-0.13507 -0.0318,-0.0141 -0.0806,-0.0128 -0.12032,-0.0262 -0.0187,-0.005 -0.0331,-0.0146 -0.0528,-0.0188 -0.0242,-0.005 -0.0489,-0.005 -0.0676,-0.0151 -0.0745,-0.0368 -0.11465,-0.15643 -0.20688,-0.15388 -0.0394,0.002 -0.0772,0.0377 -0.11284,0.0375 -0.0354,-1.9e-4 -0.0948,-0.0283 -0.13922,-0.0488 -0.0461,-0.0212 -0.0974,-0.0331 -0.13534,-0.0525 -0.0308,-0.0156 -0.0521,-0.0444 -0.079,-0.0564 -0.0205,-0.009 -0.0508,-0.011 -0.0677,-0.0187 -0.0241,-0.0114 -0.0491,-0.0356 -0.079,-0.0565 -0.0284,-0.0197 -0.0591,-0.0495 -0.0602,-0.075 -0.002,-0.0294 0.0271,-0.0544 0.0301,-0.0827 0.01,-0.0894 -0.0563,-0.15363 -0.0978,-0.20645 -0.0307,-0.0393 -0.0668,-0.0726 -0.0977,-0.1089 0.003,-0.0242 0.003,-0.0284 0,-0.0525 -0.0234,-0.0228 -0.043,-0.0562 -0.0678,-0.0902 -0.0223,-0.0307 -0.0658,-0.0632 -0.0715,-0.0976 -0.007,-0.0421 0.0161,-0.0792 0,-0.12022 -0.0268,-0.068 -0.12129,-0.0372 -0.10912,0.0526 0.006,0.0248 0.0384,0.0581 0.049,0.0826 0.011,0.0251 0.009,0.0562 0.0188,0.0863 0.01,0.0289 0.0388,0.0539 0.0489,0.0865 0.016,0.0514 0.0155,0.10681 0.03,0.13889 0.0129,0.0284 0.0605,0.0556 0.0338,0.0901 -0.0356,0.007 -0.0494,-0.0283 -0.0715,-0.0488 -0.0124,-0.0114 -0.0571,-0.0333 -0.0639,-0.0601 -0.006,-0.0221 0.014,-0.0518 0.007,-0.0789 -0.0129,-0.0529 -0.12007,-0.0542 -0.12045,-0.1089 -1.9e-4,-0.0342 0.0449,-0.0383 0.0452,-0.0714 3e-4,-0.0362 -0.0494,-0.0669 -0.0602,-0.0976 -0.01,-0.0283 -0.0113,-0.0729 -0.015,-0.1126 -0.004,-0.0372 0.002,-0.0803 -0.007,-0.1089 -0.008,-0.0257 -0.0465,-0.0613 -0.0715,-0.0751 -0.0329,-0.0183 -0.0591,-0.011 -0.0752,-0.0375 -0.014,-0.0234 -0.0232,-0.0724 -0.0262,-0.0976 -0.005,-0.045 -0.002,-0.0946 -0.005,-0.14268 -0.004,-0.0483 -0.007,-0.0946 0,-0.1464 0.0185,-0.0363 0.0526,-0.0541 0.0716,-0.0902 0.0133,-0.0251 0.0151,-0.0559 0.03,-0.0826 0.0276,-0.0489 0.0876,-0.0944 0.12793,-0.1427 0.0436,-0.0521 0.0836,-0.10197 0.10901,-0.16149 0.009,-0.0212 0.0336,-0.068 0.0301,-0.0938 -0.005,-0.0361 -0.0731,-0.0659 -0.0678,-0.10879 0.004,-0.0265 0.0414,-0.0263 0.0528,-0.0525 0.005,-0.0135 0.011,-0.0514 0.0113,-0.0676 5.7e-4,-0.0361 -0.0185,-0.0739 -0.0113,-0.11264 0.005,-0.033 0.0553,-0.0464 0.03,-0.0826 -0.0251,-0.036 -0.0701,0.0194 -0.0978,-0.004 -0.0254,-0.0213 0.005,-0.0471 0.007,-0.0863 0.002,-0.0156 -0.009,-0.0334 -0.007,-0.0451 0.004,-0.0167 0.0351,-0.045 0.0263,-0.0563 -0.0135,-0.0174 -0.0284,-0.0519 -0.0497,-0.0797 0.41954,-0.33557 0.9223,-0.57148 1.47204,-0.67125 z"
         style="fill:#00a33d;fill-opacity:1;stroke-width:0.05845851;stroke-miterlimit:4;stroke-dasharray:none" />
    </g>
    <g
       id="g2406"
       transform="matrix(0.02157448,0,0,0.02157448,443.45242,542.38394)">
      <path
         inkscape:connector-curvature="0"
         style="opacity:1;fill:#ab10d2;fill-opacity:1;fill-rule:nonzero;stroke:none;stroke-width:1;stroke-linecap:butt;stroke-linejoin:miter;stroke-miterlimit:4;stroke-dasharray:1, 1;stroke-dashoffset:0;stroke-opacity:1"
         id="path3160"
         transform="translate(177.88048,90.628287)"
         d="m 143.96258,136.44534 c 0.005,15.87233 -12.8605,28.74211 -28.73282,28.74211 -15.872329,0 -28.737954,-12.86978 -28.732825,-28.74211 -0.0051,-15.87233 12.860496,-28.74211 28.732825,-28.74211 15.87232,0 28.73795,12.86978 28.73282,28.74211 z" />
      <path
         inkscape:connector-curvature="0"
         style="fill:none;fill-rule:evenodd;stroke:#000000;stroke-width:8;stroke-linecap:butt;stroke-linejoin:miter;stroke-miterlimit:4;stroke-dasharray:none;stroke-opacity:1;marker-end:url(#TriangleOutS)"
         id="path6080"
         d="m 190.27566,343.52799 85.30589,-94.78432" />
      <path
         inkscape:connector-curvature="0"
         style="opacity:1;fill:#047391;fill-opacity:1;fill-rule:nonzero;stroke:none;stroke-width:1;stroke-linecap:butt;stroke-linejoin:miter;stroke-miterlimit:4;stroke-dasharray:1, 1;stroke-dashoffset:0;stroke-opacity:1"
         id="path3166"
         transform="translate(64.551296,218.27594)"
         d="m 143.96258,136.44534 c 0.005,15.87233 -12.8605,28.74211 -28.73282,28.74211 -15.872329,0 -28.737954,-12.86978 -28.732825,-28.74211 -0.0051,-15.87233 12.860496,-28.74211 28.732825,-28.74211 15.87232,0 28.73795,12.86978 28.73282,28.74211 z" />
      <path
         inkscape:connector-curvature="0"
         style="fill:none;fill-rule:evenodd;stroke:#000000;stroke-width:10;stroke-linecap:butt;stroke-linejoin:miter;stroke-miterlimit:4;stroke-dasharray:none;stroke-opacity:1;marker-end:url(#TriangleOutS)"
         id="path6076"
         d="m 180.79723,185.84134 85.30589,31.882" />
      <path
         inkscape:connector-curvature="0"
         style="fill:none;fill-rule:evenodd;stroke:#000000;stroke-width:10;stroke-linecap:butt;stroke-linejoin:miter;stroke-miterlimit:4;stroke-dasharray:none;stroke-opacity:1;marker-end:url(#TriangleOutS)"
         id="path6078"
         d="m 69.641074,299.58253 84.444206,43.94546" />
      <path
         inkscape:connector-curvature="0"
         style="opacity:1;fill:#047391;fill-opacity:1;fill-rule:nonzero;stroke:none;stroke-width:1;stroke-linecap:butt;stroke-linejoin:miter;stroke-miterlimit:4;stroke-dasharray:1, 1;stroke-dashoffset:0;stroke-opacity:1"
         id="path3156"
         transform="translate(64.551296,48.485249)"
         d="m 143.96258,136.44534 c 0.005,15.87233 -12.8605,28.74211 -28.73282,28.74211 -15.872329,0 -28.737954,-12.86978 -28.732825,-28.74211 -0.0051,-15.87233 12.860496,-28.74211 28.732825,-28.74211 15.87232,0 28.73795,12.86978 28.73282,28.74211 z" />
      <path
         inkscape:connector-curvature="0"
         style="fill:none;fill-rule:evenodd;stroke:#000000;stroke-width:5;stroke-linecap:butt;stroke-linejoin:miter;stroke-miterlimit:4;stroke-dasharray:none;stroke-opacity:1;marker-end:url(#TriangleOutS)"
         id="path6086"
         d="M 70.502751,297.85918 158.39367,203.93653" />
      <path
         inkscape:connector-curvature="0"
         style="fill:none;fill-rule:evenodd;stroke:#000000;stroke-width:5;stroke-linecap:butt;stroke-linejoin:miter;stroke-miterlimit:4;stroke-dasharray:none;stroke-opacity:1;marker-end:url(#TriangleOutS)"
         id="path6088"
         d="m 187.69063,265.97718 80.99752,-30.15865" />
      <path
         inkscape:connector-curvature="0"
         style="opacity:1;fill:#047391;fill-opacity:1;fill-rule:nonzero;stroke:none;stroke-width:1;stroke-linecap:butt;stroke-linejoin:miter;stroke-miterlimit:4;stroke-dasharray:1, 1;stroke-dashoffset:0;stroke-opacity:1"
         id="path3164"
         transform="translate(64.551296,133.3806)"
         d="m 143.96258,136.44534 c 0.005,15.87233 -12.8605,28.74211 -28.73282,28.74211 -15.872329,0 -28.737954,-12.86978 -28.732825,-28.74211 -0.0051,-15.87233 12.860496,-28.74211 28.732825,-28.74211 15.87232,0 28.73795,12.86978 28.73282,28.74211 z" />
      <path
         inkscape:connector-curvature="0"
         style="fill:none;fill-rule:evenodd;stroke:#000000;stroke-width:8;stroke-linecap:butt;stroke-linejoin:miter;stroke-miterlimit:4;stroke-dasharray:none;stroke-opacity:1;marker-end:url(#TriangleOutS)"
         id="path6084"
         d="M 71.364427,300.44421 150.63859,277.17896" />
      <path
         inkscape:connector-curvature="0"
         style="opacity:1;fill:#00a33d;fill-opacity:1;fill-rule:nonzero;stroke:none;stroke-width:1;stroke-linecap:butt;stroke-linejoin:miter;stroke-miterlimit:4;stroke-dasharray:1, 1;stroke-dashoffset:0;stroke-opacity:1"
         id="path3162"
         transform="translate(-49.082537,162.22065)"
         d="m 143.96258,136.44534 c 0.005,15.87233 -12.8605,28.74211 -28.73282,28.74211 -15.872329,0 -28.737954,-12.86978 -28.732825,-28.74211 -0.0051,-15.87233 12.860496,-28.74211 28.732825,-28.74211 15.87232,0 28.73795,12.86978 28.73282,28.74211 z" />
      <path
         inkscape:connector-curvature="0"
         style="fill:none;fill-rule:evenodd;stroke:#000000;stroke-width:8;stroke-linecap:butt;stroke-linejoin:miter;stroke-miterlimit:4;stroke-dasharray:none;stroke-opacity:1;marker-end:url(#TriangleOutS)"
         id="path6082"
         d="m 73.087778,163.43779 85.305892,83.58253" />
      <path
         inkscape:connector-curvature="0"
         style="fill:none;fill-rule:evenodd;stroke:#000000;stroke-width:5;stroke-linecap:butt;stroke-linejoin:miter;stroke-miterlimit:4;stroke-dasharray:none;stroke-opacity:1;marker-end:url(#TriangleOutS)"
         id="path6090"
         d="m 185.1056,103.98216 90.47595,100.81605" />
      <path
         inkscape:connector-curvature="0"
         style="opacity:1;fill:#047391;fill-opacity:1;fill-rule:nonzero;stroke:none;stroke-width:1;stroke-linecap:butt;stroke-linejoin:miter;stroke-miterlimit:4;stroke-dasharray:1, 1;stroke-dashoffset:0;stroke-opacity:1"
         id="path3158"
         transform="translate(64.551296,-36.410076)"
         d="m 143.96258,136.44534 c 0.005,15.87233 -12.8605,28.74211 -28.73282,28.74211 -15.872329,0 -28.737954,-12.86978 -28.732825,-28.74211 -0.0051,-15.87233 12.860496,-28.74211 28.732825,-28.74211 15.87232,0 28.73795,12.86978 28.73282,28.74211 z" />
      <path
         inkscape:connector-curvature="0"
         style="fill:none;fill-rule:evenodd;stroke:#000000;stroke-width:10;stroke-linecap:butt;stroke-linejoin:miter;stroke-miterlimit:4;stroke-dasharray:none;stroke-opacity:1;marker-end:url(#TriangleOutS)"
         id="path3168"
         d="M 69.641074,154.82102 154.08528,109.15221" />
      <path
         inkscape:connector-curvature="0"
         style="fill:none;fill-rule:evenodd;stroke:#000000;stroke-width:10;stroke-linecap:butt;stroke-linejoin:miter;stroke-miterlimit:4;stroke-dasharray:none;stroke-opacity:1;marker-end:url(#TriangleOutS)"
         id="path6092"
         d="m 71.364424,157.40605 81.859186,21.54188" />
      <path
         inkscape:connector-curvature="0"
         style="opacity:1;fill:#00a33d;fill-opacity:1;fill-rule:nonzero;stroke:none;stroke-width:1;stroke-linecap:butt;stroke-linejoin:miter;stroke-miterlimit:4;stroke-dasharray:1, 1;stroke-dashoffset:0;stroke-opacity:1"
         id="path2384"
         transform="translate(-49.082537,19.949868)"
         d="m 143.96258,136.44534 c 0.005,15.87233 -12.8605,28.74211 -28.73282,28.74211 -15.872329,0 -28.737954,-12.86978 -28.732825,-28.74211 -0.0051,-15.87233 12.860496,-28.74211 28.732825,-28.74211 15.87232,0 28.73795,12.86978 28.73282,28.74211 z" />
    </g>
    <path
       id="path918"
       style="fill:none;stroke:#ab10d2;stroke-width:0.1;stroke-linecap:butt;stroke-linejoin:round;stroke-opacity:1;stroke-miterlimit:4;stroke-dasharray:none;paint-order:normal"
       d="m 453.03491,546.11203 c -0.0884,0.6926 -0.0316,1.29059 0.90678,1.31356 0.25452,0.36017 0.39435,1.01856 0.96502,0.55674 0.0257,0.41421 -0.5991,1.10361 0.48414,1.07038 -0.11404,0.51896 -0.37894,1.16464 0.59322,0.77119 -0.006,0.18649 -0.3349,0.50724 0.14407,0.49152 0.41615,0.33007 0.46997,-0.0367 0.61016,-0.23728 0.35082,-0.18805 0.74918,0.088 0.95763,-0.72882 0.2932,0.0749 0.38397,-0.0105 0.1356,-0.3644 -0.0469,-0.46956 -0.41691,-0.32864 -0.64407,-0.45763 m 1.19491,-2.97457 c -0.65149,0.806 -1.54192,0.61281 -2.43644,0.40253 0.0402,0.3711 -0.14896,0.63031 -0.57203,0.77543 0.57919,0.0903 1.05457,0.35854 0.70763,1.26271 0.72339,-0.32881 1.1718,-0.2648 1.10593,0.5339" />
  </g>
</svg>
